<svg xmlns="http://www.w3.org/2000/svg" xmlns:xlink="http://www.w3.org/1999/xlink" xmlns:lucid="lucid" width="3549.33" height="2354.23"><g transform="translate(0 0)" lucid:page-tab-id="HWEp-vi-RSFO"><path d="M20 260h400v771H20z" stroke="#333" stroke-width="2" fill="#fff"/><path d="M20 310.93h400M20 578.17h400" stroke="#333" stroke-width="2" fill="none"/><use xlink:href="#a" transform="matrix(1,0,0,1,28,268) translate(161.3524691358025 23.322222222222223)"/><use xlink:href="#b" transform="matrix(1,0,0,1,32,318.93333333333334) translate(122.54043209876545 79.42222222222225)"/><use xlink:href="#c" transform="matrix(1,0,0,1,32,318.93333333333334) translate(154.88611111111112 79.42222222222225)"/><use xlink:href="#d" transform="matrix(1,0,0,1,32,318.93333333333334) translate(171.05895061728395 79.42222222222225)"/><use xlink:href="#e" transform="matrix(1,0,0,1,32,318.93333333333334) translate(23.27962962962968 114.35555555555555)"/><use xlink:href="#f" transform="matrix(1,0,0,1,32,318.93333333333334) translate(115.46481481481484 114.35555555555555)"/><use xlink:href="#c" transform="matrix(1,0,0,1,32,318.93333333333334) translate(226.8148148148148 114.35555555555555)"/><use xlink:href="#g" transform="matrix(1,0,0,1,32,318.93333333333334) translate(242.98765432098764 114.35555555555555)"/><use xlink:href="#h" transform="matrix(1,0,0,1,32,318.93333333333334) translate(84.69598765432102 149.2888888888889)"/><use xlink:href="#i" transform="matrix(1,0,0,1,32,318.93333333333334) translate(217.15154320987654 149.2888888888889)"/><use xlink:href="#j" transform="matrix(1,0,0,1,32,318.93333333333334) translate(188 184.22222222222223)"/><use xlink:href="#k" transform="matrix(1,0,0,1,32,586.1666666666667) translate(122.00740740740744 82.81111111111116)"/><use xlink:href="#l" transform="matrix(1,0,0,1,32,586.1666666666667) translate(129.41759259259263 123.07777777777781)"/><use xlink:href="#m" transform="matrix(1,0,0,1,32,586.1666666666667) translate(114.50401234567904 163.34444444444446)"/><use xlink:href="#n" transform="matrix(1,0,0,1,32,586.1666666666667) translate(67.94567901234572 203.61111111111111)"/><use xlink:href="#o" transform="matrix(1,0,0,1,32,586.1666666666667) translate(97.8194444444445 243.87777777777777)"/><use xlink:href="#p" transform="matrix(1,0,0,1,32,586.1666666666667) translate(76.47438271604943 284.1444444444444)"/><use xlink:href="#q" transform="matrix(1,0,0,1,32,586.1666666666667) translate(96.84074074074077 324.41111111111104)"/><use xlink:href="#r" transform="matrix(1,0,0,1,32,586.1666666666667) translate(188 352.23333333333323)"/><use xlink:href="#s" transform="matrix(1,0,0,1,32,586.1666666666667) translate(188 373.83333333333326)"/><path d="M1300 520h360v700h-360z" stroke="#333" stroke-width="2" fill="#fff"/><path d="M1300 570.93h360m-360 369.1h360" stroke="#333" stroke-width="2" fill="none"/><use xlink:href="#t" transform="matrix(1,0,0,1,1308,528) translate(113.00956790123459 23.322222222222223)"/><use xlink:href="#u" transform="matrix(1,0,0,1,1312,578.9333333333333) translate(40.355864197530906 95.48888888888891)"/><use xlink:href="#v" transform="matrix(1,0,0,1,1312,578.9333333333333) translate(166.42314814814813 95.48888888888891)"/><use xlink:href="#c" transform="matrix(1,0,0,1,1312,578.9333333333333) translate(197.07067901234566 95.48888888888891)"/><use xlink:href="#d" transform="matrix(1,0,0,1,1312,578.9333333333333) translate(213.2435185185185 95.48888888888891)"/><use xlink:href="#w" transform="matrix(1,0,0,1,1312,578.9333333333333) translate(30.773456790123475 130.42222222222222)"/><use xlink:href="#c" transform="matrix(1,0,0,1,1312,578.9333333333333) translate(140.6679012345679 130.42222222222222)"/><use xlink:href="#x" transform="matrix(1,0,0,1,1312,578.9333333333333) translate(156.84074074074073 130.42222222222222)"/><use xlink:href="#y" transform="matrix(1,0,0,1,1312,578.9333333333333) translate(52.485493827160525 165.35555555555555)"/><use xlink:href="#v" transform="matrix(1,0,0,1,1312,578.9333333333333) translate(154.2935185185185 165.35555555555555)"/><use xlink:href="#c" transform="matrix(1,0,0,1,1312,578.9333333333333) translate(184.94104938271605 165.35555555555555)"/><use xlink:href="#d" transform="matrix(1,0,0,1,1312,578.9333333333333) translate(201.11388888888888 165.35555555555555)"/><use xlink:href="#z" transform="matrix(1,0,0,1,1312,578.9333333333333) translate(41.20493827160497 200.2888888888889)"/><use xlink:href="#A" transform="matrix(1,0,0,1,1312,578.9333333333333) translate(163.8759259259259 200.2888888888889)"/><use xlink:href="#c" transform="matrix(1,0,0,1,1312,578.9333333333333) translate(196.22160493827158 200.2888888888889)"/><use xlink:href="#d" transform="matrix(1,0,0,1,1312,578.9333333333333) translate(212.39444444444445 200.2888888888889)"/><use xlink:href="#B" transform="matrix(1,0,0,1,1312,578.9333333333333) translate(13.872839506172852 235.2222222222222)"/><use xlink:href="#C" transform="matrix(1,0,0,1,1312,578.9333333333333) translate(177.4611111111111 235.2222222222222)"/><use xlink:href="#D" transform="matrix(1,0,0,1,1312,578.9333333333333) translate(59.52067901234571 270.1555555555555)"/><use xlink:href="#c" transform="matrix(1,0,0,1,1312,578.9333333333333) translate(150.08858024691358 270.1555555555555)"/><use xlink:href="#E" transform="matrix(1,0,0,1,1312,578.9333333333333) translate(166.26141975308644 270.1555555555555)"/><use xlink:href="#F" transform="matrix(1,0,0,1,1312,948.0333333333333) translate(49.76327160493831 98.94444444444446)"/><use xlink:href="#G" transform="matrix(1,0,0,1,1312,948.0333333333333) translate(28.418209876543273 139.2111111111111)"/><use xlink:href="#H" transform="matrix(1,0,0,1,1312,948.0333333333333) translate(41.374382716049425 179.47777777777776)"/><path d="M1560 45h360v318h-360z" stroke="#333" stroke-width="2" fill="#fff"/><path d="M1560 125.53h360" stroke="#333" stroke-width="2" fill="none"/><use xlink:href="#I" transform="matrix(1,0,0,1,1568,53) translate(70.45709876543211 21.744444444444447)"/><use xlink:href="#J" transform="matrix(1,0,0,1,1568,53) translate(119.75339506172841 54.011111111111106)"/><use xlink:href="#F" transform="matrix(1,0,0,1,1572,133.5333333333333) translate(49.76327160493831 77.44444444444446)"/><use xlink:href="#G" transform="matrix(1,0,0,1,1572,133.5333333333333) translate(28.418209876543273 117.71111111111111)"/><use xlink:href="#H" transform="matrix(1,0,0,1,1572,133.5333333333333) translate(41.374382716049425 157.97777777777776)"/><path d="M1780 520h360v700h-360z" stroke="#333" stroke-width="2" fill="#fff"/><path d="M1780 570.93h360m-360 369.1h360" stroke="#333" stroke-width="2" fill="none"/><use xlink:href="#K" transform="matrix(1,0,0,1,1788,528) translate(72.61790123456794 23.322222222222223)"/><use xlink:href="#u" transform="matrix(1,0,0,1,1792,578.9333333333333) translate(40.355864197530906 95.48888888888891)"/><use xlink:href="#v" transform="matrix(1,0,0,1,1792,578.9333333333333) translate(166.42314814814813 95.48888888888891)"/><use xlink:href="#c" transform="matrix(1,0,0,1,1792,578.9333333333333) translate(197.07067901234566 95.48888888888891)"/><use xlink:href="#d" transform="matrix(1,0,0,1,1792,578.9333333333333) translate(213.2435185185185 95.48888888888891)"/><use xlink:href="#w" transform="matrix(1,0,0,1,1792,578.9333333333333) translate(30.773456790123475 130.42222222222222)"/><use xlink:href="#c" transform="matrix(1,0,0,1,1792,578.9333333333333) translate(140.6679012345679 130.42222222222222)"/><use xlink:href="#x" transform="matrix(1,0,0,1,1792,578.9333333333333) translate(156.84074074074073 130.42222222222222)"/><use xlink:href="#y" transform="matrix(1,0,0,1,1792,578.9333333333333) translate(52.485493827160525 165.35555555555555)"/><use xlink:href="#v" transform="matrix(1,0,0,1,1792,578.9333333333333) translate(154.2935185185185 165.35555555555555)"/><use xlink:href="#c" transform="matrix(1,0,0,1,1792,578.9333333333333) translate(184.94104938271605 165.35555555555555)"/><use xlink:href="#d" transform="matrix(1,0,0,1,1792,578.9333333333333) translate(201.11388888888888 165.35555555555555)"/><use xlink:href="#L" transform="matrix(1,0,0,1,1792,578.9333333333333) translate(1.621913580246968 200.2888888888889)"/><use xlink:href="#M" transform="matrix(1,0,0,1,1792,578.9333333333333) translate(186.47746913580247 200.2888888888889)"/><use xlink:href="#c" transform="matrix(1,0,0,1,1792,578.9333333333333) translate(235.8046296296296 200.2888888888889)"/><use xlink:href="#d" transform="matrix(1,0,0,1,1792,578.9333333333333) translate(251.97746913580244 200.2888888888889)"/><use xlink:href="#B" transform="matrix(1,0,0,1,1792,578.9333333333333) translate(13.872839506172852 235.2222222222222)"/><use xlink:href="#C" transform="matrix(1,0,0,1,1792,578.9333333333333) translate(177.4611111111111 235.2222222222222)"/><use xlink:href="#D" transform="matrix(1,0,0,1,1792,578.9333333333333) translate(59.52067901234571 270.1555555555555)"/><use xlink:href="#c" transform="matrix(1,0,0,1,1792,578.9333333333333) translate(150.08858024691358 270.1555555555555)"/><use xlink:href="#E" transform="matrix(1,0,0,1,1792,578.9333333333333) translate(166.26141975308644 270.1555555555555)"/><use xlink:href="#F" transform="matrix(1,0,0,1,1792,948.0333333333333) translate(49.76327160493831 98.94444444444446)"/><use xlink:href="#G" transform="matrix(1,0,0,1,1792,948.0333333333333) translate(28.418209876543273 139.2111111111111)"/><use xlink:href="#H" transform="matrix(1,0,0,1,1792,948.0333333333333) translate(41.374382716049425 179.47777777777776)"/><path d="M2780 80h360v230h-360z" stroke="#333" stroke-width="2" fill="#fff"/><path d="M2780 160.53h360" stroke="#333" stroke-width="2" fill="none"/><use xlink:href="#N" transform="matrix(1,0,0,1,2788,88) translate(72.10030864197532 21.744444444444447)"/><use xlink:href="#O" transform="matrix(1,0,0,1,2788,88) translate(119.75339506172841 54.011111111111106)"/><use xlink:href="#P" transform="matrix(1,0,0,1,2792,168.5333333333333) translate(93.4206790123457 72.37777777777778)"/><path d="M2640 460h360v188h-360z" stroke="#333" stroke-width="2" fill="#fff"/><path d="M2640 508.27h360m-360 69.76h360" stroke="#333" stroke-width="2" fill="none"/><use xlink:href="#Q" transform="matrix(1,0,0,1,2648,468) translate(124.30956790123457 21.877777777777776)"/><use xlink:href="#P" transform="matrix(1,0,0,1,2652,586.0333333333333) translate(93.4206790123457 32.37777777777778)"/><path d="M2880 700h360v188h-360z" stroke="#333" stroke-width="2" fill="#fff"/><path d="M2880 748.27h360m-360 69.76h360" stroke="#333" stroke-width="2" fill="none"/><use xlink:href="#R" transform="matrix(1,0,0,1,2888,708) translate(134.69166666666666 21.877777777777776)"/><use xlink:href="#P" transform="matrix(1,0,0,1,2892,826.0333333333333) translate(93.4206790123457 32.37777777777778)"/><path d="M3100 440h360v188h-360z" stroke="#333" stroke-width="2" fill="#fff"/><path d="M3100 488.27h360m-360 69.76h360" stroke="#333" stroke-width="2" fill="none"/><use xlink:href="#S" transform="matrix(1,0,0,1,3108,448) translate(137.94074074074075 21.877777777777776)"/><use xlink:href="#P" transform="matrix(1,0,0,1,3112,566.0333333333333) translate(93.4206790123457 32.37777777777778)"/><path d="M2460 920h360v262h-360z" stroke="#333" stroke-width="2" fill="#fff"/><path d="M2460 968.27h360" stroke="#333" stroke-width="2" fill="none"/><use xlink:href="#T" transform="matrix(1,0,0,1,2468,928) translate(121.09783950617285 21.877777777777776)"/><use xlink:href="#U" transform="matrix(1,0,0,1,2472,976.2666666666667) translate(132.22283950617285 72.11111111111111)"/><use xlink:href="#V" transform="matrix(1,0,0,1,2472,976.2666666666667) translate(91.92685185185186 104.37777777777778)"/><use xlink:href="#W" transform="matrix(1,0,0,1,2472,976.2666666666667) translate(130.72901234567902 136.64444444444445)"/><path d="M2820 458.5V397a12 12 0 0 1 12-12h116a12 12 0 0 0 12-12v-45.62" stroke="#333" fill="none"/><path d="M2820.5 459h-1v-.5h1z" stroke="#333" stroke-width=".05" fill="#333"/><path d="M2960 312.62l4.64 14.26h-9.28z" stroke="#333" fill="#333"/><path d="M2260 460h360v188h-360z" stroke="#333" stroke-width="2" fill="#fff"/><path d="M2260 508.27h360m-360 69.76h360" stroke="#333" stroke-width="2" fill="none"/><use xlink:href="#X" transform="matrix(1,0,0,1,2268,468) translate(117.58734567901234 21.877777777777776)"/><use xlink:href="#P" transform="matrix(1,0,0,1,2272,586.0333333333333) translate(93.4206790123457 32.37777777777778)"/><path d="M2440 458.5V397a12 12 0 0 1 12-12h440.8a12 12 0 0 0 12-12v-45.62" stroke="#333" fill="none"/><path d="M2440.5 459h-1v-.5h1z" stroke="#333" stroke-width=".05" fill="#333"/><path d="M2904.8 312.62l4.64 14.26h-9.27z" stroke="#333" fill="#333"/><path d="M3060 698.5V322.8a2.8 2.8 0 0 0-2.8-2.8h-2.83" stroke="#333" fill="none"/><path d="M3060.5 699h-1v-.5h1z" stroke="#333" stroke-width=".05" fill="#333"/><path d="M3048 312.25l12.65 8.1-7.17 5.87z" stroke="#333" fill="#333"/><path d="M3280 438.5V372a12 12 0 0 0-12-12h-240.03a12 12 0 0 1-12-12v-20.62" stroke="#333" fill="none"/><path d="M3280.5 439h-1v-.5h1z" stroke="#333" stroke-width=".05" fill="#333"/><path d="M3015.97 312.62l4.63 14.26h-9.27z" stroke="#333" fill="#333"/><path d="M1480 518.5V216a12 12 0 0 1 12-12h50.62" stroke="#333" fill="none"/><path d="M1480.5 519h-1v-.5h1z" stroke="#333" stroke-width=".05" fill="#333"/><path d="M1557.38 204l-14.26 4.63v-9.26z" stroke="#333" fill="#333"/><path d="M1960 518.5V216a12 12 0 0 0-12-12h-10.62" stroke="#333" fill="none"/><path d="M1960.5 519h-1v-.5h1z" stroke="#333" stroke-width=".05" fill="#333"/><path d="M1922.62 204l14.26-4.63v9.26z" stroke="#333" fill="#333"/><path d="M2141.5 707.95h56.5a12 12 0 0 0 12-12v-419.2a12 12 0 0 1 12-12h540.62" stroke="#333" fill="none"/><path d="M2141.5 708.45h-.5v-1h.5z" stroke="#333" stroke-width=".05" fill="#333"/><path d="M2777.38 264.74l-14.26 4.64v-9.27z" stroke="#333" fill="#333"/><use xlink:href="#Y" transform="matrix(1,0,0,1,2140.5308641975307,711.9538995647598) translate(0 21.511111111111106)"/><use xlink:href="#Y" transform="matrix(1,0,0,1,2764.5308641975307,223.8420050762689) translate(0 21.511111111111106)"/><path d="M1661.5 699.68h76.5a12 12 0 0 0 12-12V452a12 12 0 0 1 12-12h526a12 12 0 0 0 12-12V173.34a12 12 0 0 1 12-12h450.62" stroke="#333" fill="none"/><path d="M1661.5 700.18h-.5v-1h.5z" stroke="#333" stroke-width=".05" fill="#333"/><path d="M2777.38 161.34l-14.26 4.63v-9.27z" stroke="#333" fill="#333"/><use xlink:href="#Y" transform="matrix(1,0,0,1,1660.530864197531,703.6814176795656) translate(0 21.511111111111106)"/><use xlink:href="#Y" transform="matrix(1,0,0,1,2764.5308641975303,120.43598151133978) translate(0 21.511111111111106)"/><path d="M2141.5 832.04H2288a12 12 0 0 1 12 12V1039a12 12 0 0 0 12 12h130.62" stroke="#333" fill="none"/><path d="M2141.5 832.54h-.5v-1h.5z" stroke="#333" stroke-width=".05" fill="#333"/><path d="M2457.38 1051l-14.26 4.63v-9.27z" stroke="#333" fill="#333"/><path d="M240 1520h140v100H240z" stroke="#333" stroke-width="2" fill="#fff"/><use xlink:href="#Z" transform="matrix(1,0,0,1,245,1525) translate(32.01296296296297 51.266666666666666)"/><path d="M760 1520h160v100H760z" stroke="#333" stroke-width="2" fill="#fff"/><use xlink:href="#aa" transform="matrix(1,0,0,1,765,1525) translate(11.506481481481494 51.266666666666666)"/><path d="M382 1570h358.5" stroke="#333" stroke-width="2" fill="none"/><path d="M382.03 1571H381v-2h1.03z" stroke="#333" stroke-width=".05" fill="#333"/><path d="M755.76 1570l-14.26 4.63v-9.27z" stroke="#333" stroke-width="2" fill="#333"/><path d="M840 1622v27a12 12 0 0 1-12 12H327a12 12 0 0 1-12-12v-9.5" stroke="#333" stroke-width="2" fill="none"/><path d="M841 1622.03h-2V1621h2z" stroke="#333" stroke-width=".05" fill="#333"/><path d="M315 1624.24l4.63 14.26h-9.26z" stroke="#333" stroke-width="2" fill="#333"/><path d="M300 1500h240v77.6H300z" stroke="#000" stroke-opacity="0" stroke-width="2" fill="#fff" fill-opacity="0"/><use xlink:href="#ab" transform="matrix(1,0,0,1,305,1505) translate(106.2962962962963 40.266666666666666)"/><path d="M620 1500h240v77.6H620z" stroke="#000" stroke-opacity="0" stroke-width="2" fill="#fff" fill-opacity="0"/><use xlink:href="#ac" transform="matrix(1,0,0,1,625,1505) translate(103.7287037037037 40.266666666666666)"/><path d="M740 1900h240v77.6H740z" stroke="#000" stroke-opacity="0" stroke-width="2" fill="#fff" fill-opacity="0"/><use xlink:href="#ab" transform="matrix(1,0,0,1,745,1905) translate(106.2962962962963 40.266666666666666)"/><path d="M140 1900h240v77.6H140z" stroke="#000" stroke-opacity="0" stroke-width="2" fill="#fff" fill-opacity="0"/><use xlink:href="#ac" transform="matrix(1,0,0,1,145,1905) translate(103.7287037037037 40.266666666666666)"/><path d="M560 260h400v771H560z" stroke="#333" stroke-width="2" fill="#fff"/><path d="M560 310.93h400m-400 249.8h400" stroke="#333" stroke-width="2" fill="none"/><use xlink:href="#ad" transform="matrix(1,0,0,1,568,268) translate(151.60833333333335 23.322222222222223)"/><use xlink:href="#b" transform="matrix(1,0,0,1,572,318.93333333333334) translate(122.54043209876545 87.88888888888889)"/><use xlink:href="#c" transform="matrix(1,0,0,1,572,318.93333333333334) translate(154.88611111111112 87.88888888888889)"/><use xlink:href="#d" transform="matrix(1,0,0,1,572,318.93333333333334) translate(171.05895061728395 87.88888888888889)"/><use xlink:href="#ae" transform="matrix(1,0,0,1,572,318.93333333333334) translate(80.6527777777778 122.82222222222222)"/><use xlink:href="#c" transform="matrix(1,0,0,1,572,318.93333333333334) translate(205.02191358024692 122.82222222222222)"/><use xlink:href="#i" transform="matrix(1,0,0,1,572,318.93333333333334) translate(221.19475308641975 122.82222222222222)"/><use xlink:href="#af" transform="matrix(1,0,0,1,572,318.93333333333334) translate(67.71450617283955 157.75555555555553)"/><use xlink:href="#c" transform="matrix(1,0,0,1,572,318.93333333333334) translate(151.65154320987654 157.75555555555553)"/><use xlink:href="#ag" transform="matrix(1,0,0,1,572,318.93333333333334) translate(167.8243827160494 157.75555555555553)"/><use xlink:href="#ah" transform="matrix(1,0,0,1,572,568.7333333333333) translate(188 91.81111111111116)"/><use xlink:href="#ai" transform="matrix(1,0,0,1,572,568.7333333333333) translate(81.9737654320988 132.0777777777778)"/><use xlink:href="#aj" transform="matrix(1,0,0,1,572,568.7333333333333) translate(80.10956790123461 172.34444444444446)"/><use xlink:href="#ak" transform="matrix(1,0,0,1,572,568.7333333333333) translate(111.75432098765437 212.61111111111111)"/><use xlink:href="#al" transform="matrix(1,0,0,1,572,568.7333333333333) translate(79.22407407407411 252.87777777777777)"/><use xlink:href="#ah" transform="matrix(1,0,0,1,572,568.7333333333333) translate(188 293.1444444444444)"/><use xlink:href="#ah" transform="matrix(1,0,0,1,572,568.7333333333333) translate(188 333.41111111111104)"/><use xlink:href="#r" transform="matrix(1,0,0,1,572,568.7333333333333) translate(188 361.23333333333323)"/><use xlink:href="#s" transform="matrix(1,0,0,1,572,568.7333333333333) translate(188 382.83333333333326)"/><path d="M1040 45h360v318h-360z" stroke="#333" stroke-width="2" fill="#fff"/><path d="M1040 95.93h360m-360 185.74h360" stroke="#333" stroke-width="2" fill="none"/><g><use xlink:href="#am" transform="matrix(1,0,0,1,1048,53) translate(134.92376543209878 23.32222222222222)"/></g><g><use xlink:href="#an" transform="matrix(1,0,0,1,1052,103.93333333333331) translate(62.99783950617288 38.42222222222224)"/><use xlink:href="#c" transform="matrix(1,0,0,1,1052,103.93333333333331) translate(147.09660493827164 38.42222222222224)"/><use xlink:href="#g" transform="matrix(1,0,0,1,1052,103.93333333333331) translate(163.26944444444445 38.42222222222224)"/><use xlink:href="#ao" transform="matrix(1,0,0,1,1052,103.93333333333331) translate(63.84691358024695 73.35555555555555)"/><use xlink:href="#ap" transform="matrix(1,0,0,1,1052,103.93333333333331) translate(154.17222222222222 73.35555555555555)"/><use xlink:href="#aq" transform="matrix(1,0,0,1,1052,103.93333333333331) translate(178.43148148148148 73.35555555555555)"/><use xlink:href="#ar" transform="matrix(1,0,0,1,1052,103.93333333333331) translate(62.27006172839509 108.28888888888889)"/><use xlink:href="#c" transform="matrix(1,0,0,1,1052,103.93333333333331) translate(147.8243827160494 108.28888888888889)"/><use xlink:href="#g" transform="matrix(1,0,0,1,1052,103.93333333333331) translate(163.9972222222222 108.28888888888889)"/><use xlink:href="#as" transform="matrix(1,0,0,1,1052,103.93333333333331) translate(6.069444444444514 143.2222222222222)"/></g><g><use xlink:href="#at" transform="matrix(1,0,0,1,1052,289.66666666666663) translate(101.0848765432099 38.32222222222222)"/></g><path d="M220 240.5V136.93a12 12 0 0 1 12-12h806" stroke="#333" stroke-width="2" fill="none"/><path d="M220 255.76l-4.63-14.26h9.26z" stroke="#333" stroke-width="2" fill="#333"/><path d="M1039 125.93h-1.03v-2h1.03z" stroke="#333" stroke-width=".05" fill="#333"/><path d="M1038 204H772a12 12 0 0 0-12 12v24.5" stroke="#333" stroke-width="2" fill="none"/><path d="M1039 205h-1.03v-2h1.03z" stroke="#333" stroke-width=".05" fill="#333"/><path d="M760 255.76l-4.63-14.26h9.26z" stroke="#333" stroke-width="2" fill="#333"/><path d="M422 542.4h9a12 12 0 0 1 12 12V1108a12 12 0 0 0 12 12h810a12 12 0 0 0 12-12V545.9a3.5 3.5 0 0 1 3.5-3.5" stroke="#333" stroke-width="2" fill="none"/><path d="M422.03 543.4H421v-2h1.03z" stroke="#333" stroke-width=".05" fill="#333"/><path d="M1295.76 542.4l-14.26 4.63v-9.26z" stroke="#333" stroke-width="2" fill="#333"/><path d="M962 424.8h96a12 12 0 0 1 12 12V1278a12 12 0 0 0 12 12h663a12 12 0 0 0 12-12V873.5a3.5 3.5 0 0 1 3.5-3.5" stroke="#333" stroke-width="2" fill="none"/><path d="M962.03 425.8H961v-2h1.03z" stroke="#333" stroke-width=".05" fill="#333"/><path d="M1775.76 870l-14.26 4.63v-9.26z" stroke="#333" stroke-width="2" fill="#333"/><path d="M439.5 446.4H558" stroke="#333" stroke-width="2" fill="none"/><path d="M424.24 446.4l14.26-4.63v9.27z" stroke="#333" stroke-width="2" fill="#333"/><path d="M559 447.4h-1.03v-2H559z" stroke="#333" stroke-width=".05" fill="#333"/><g><use xlink:href="#au" transform="matrix(1,0,0,1,542.2962962962963,450.4) translate(0 25.066666666666663)"/></g><g><use xlink:href="#av" transform="matrix(1,0,0,1,420.7287037037037,400.16474508437574) translate(0 25.066666666666663)"/></g><path d="M240 1800h140v100H240z" stroke="#333" stroke-width="2" fill="#fff"/><g><use xlink:href="#aw" transform="matrix(1,0,0,1,245,1805) translate(28.494999999999997 51.266666666666666)"/><use xlink:href="#ax" transform="matrix(1,0,0,1,245,1805) translate(100.505 51.266666666666666)"/></g><path d="M760 1800h160v100H760z" stroke="#333" stroke-width="2" fill="#fff"/><g><use xlink:href="#ay" transform="matrix(1,0,0,1,765,1805) translate(31.525000000000013 51.266666666666666)"/></g><path d="M382 1830h358.5M382.03 1830H381" stroke="#333" stroke-width="2" fill="none"/><path d="M755.76 1830l-14.26 4.63v-9.27z" stroke="#333" stroke-width="2" fill="#333"/><path d="M300 1760h240v77.6H300z" stroke="#000" stroke-opacity="0" stroke-width="2" fill="#fff" fill-opacity="0"/><g><use xlink:href="#ab" transform="matrix(1,0,0,1,305,1765) translate(106.2962962962963 40.266666666666666)"/></g><path d="M620 1760h240v77.6H620z" stroke="#000" stroke-opacity="0" stroke-width="2" fill="#fff" fill-opacity="0"/><g><use xlink:href="#ac" transform="matrix(1,0,0,1,625,1765) translate(103.7287037037037 40.266666666666666)"/></g><path d="M840 1902v27a12 12 0 0 1-12 12H319.5a12 12 0 0 1-12-12v-9.5" stroke="#333" stroke-width="2" fill="none"/><path d="M841 1902.03h-2V1901h2z" stroke="#333" stroke-width=".05" fill="#333"/><path d="M307.5 1904.24l4.63 14.26h-9.26z" stroke="#333" stroke-width="2" fill="#333"/><path d="M240 2040h140v100H240z" stroke="#333" stroke-width="2" fill="#fff"/><g><use xlink:href="#aa" transform="matrix(1,0,0,1,245,2045) translate(1.5064814814814937 51.266666666666666)"/></g><path d="M760 2040h160v100H760z" stroke="#333" stroke-width="2" fill="#fff"/><g><use xlink:href="#ay" transform="matrix(1,0,0,1,765,2045) translate(31.525000000000013 51.266666666666666)"/></g><path d="M280 2000h240v77.6H280z" stroke="#000" stroke-opacity="0" stroke-width="2" fill="#fff" fill-opacity="0"/><g><use xlink:href="#ab" transform="matrix(1,0,0,1,285,2005) translate(106.2962962962963 40.266666666666666)"/></g><path d="M620 2000h240v77.6H620z" stroke="#000" stroke-opacity="0" stroke-width="2" fill="#fff" fill-opacity="0"/><g><use xlink:href="#ac" transform="matrix(1,0,0,1,625,2005) translate(103.7287037037037 40.266666666666666)"/></g><path d="M382 2080h358.5" stroke="#333" stroke-width="2" fill="none"/><path d="M382.03 2081H381v-2h1.03z" stroke="#333" stroke-width=".05" fill="#333"/><path d="M755.76 2080l-14.26 4.64v-9.28z" stroke="#333" stroke-width="2" fill="#333"/><path d="M840 2142v27a12 12 0 0 1-12 12H305.55a12 12 0 0 1-12-12v-9.5" stroke="#333" stroke-width="2" fill="none"/><path d="M841 2142.03h-2V2141h2z" stroke="#333" stroke-width=".05" fill="#333"/><path d="M293.55 2144.24l4.63 14.26h-9.26z" stroke="#333" stroke-width="2" fill="#333"/><path d="M740 2140h240v77.6H740z" stroke="#000" stroke-opacity="0" stroke-width="2" fill="#fff" fill-opacity="0"/><g><use xlink:href="#ab" transform="matrix(1,0,0,1,745,2145) translate(106.2962962962963 40.266666666666666)"/></g><path d="M140 2140h240v77.6H140z" stroke="#000" stroke-opacity="0" stroke-width="2" fill="#fff" fill-opacity="0"/><g><use xlink:href="#ac" transform="matrix(1,0,0,1,145,2145) translate(103.7287037037037 40.266666666666666)"/></g><path d="M740 1620h240v77.6H740z" stroke="#000" stroke-opacity="0" stroke-width="2" fill="#fff" fill-opacity="0"/><g><use xlink:href="#ab" transform="matrix(1,0,0,1,745,1625) translate(106.2962962962963 40.266666666666666)"/></g><path d="M140 1620h240v77.6H140z" stroke="#000" stroke-opacity="0" stroke-width="2" fill="#fff" fill-opacity="0"/><g><use xlink:href="#ac" transform="matrix(1,0,0,1,145,1625) translate(103.7287037037037 40.266666666666666)"/></g><path d="M1220 1520h140v100h-140z" stroke="#333" stroke-width="2" fill="#fff"/><g><use xlink:href="#Z" transform="matrix(1,0,0,1,1225,1525) translate(32.01296296296297 51.266666666666666)"/></g><path d="M1740 1520h160v100h-160z" stroke="#333" stroke-width="2" fill="#fff"/><g><use xlink:href="#az" transform="matrix(1,0,0,1,1745,1525) translate(35.09351851851853 51.266666666666666)"/></g><path d="M1280 1480h240v77.6h-240z" stroke="#000" stroke-opacity="0" stroke-width="2" fill="#fff" fill-opacity="0"/><g><use xlink:href="#ab" transform="matrix(1,0,0,1,1285,1485) translate(106.2962962962963 40.266666666666666)"/></g><path d="M1600 1480h240v77.6h-240z" stroke="#000" stroke-opacity="0" stroke-width="2" fill="#fff" fill-opacity="0"/><g><use xlink:href="#ab" transform="matrix(1,0,0,1,1605,1485) translate(106.2962962962963 40.266666666666666)"/></g><path d="M1362 1557.6h358.5" stroke="#333" stroke-width="2" fill="none"/><path d="M1362.03 1558.6H1361v-2h1.03z" stroke="#333" stroke-width=".05" fill="#333"/><path d="M1735.76 1557.6l-14.26 4.63v-9.27z" stroke="#333" stroke-width="2" fill="#333"/><path d="M1822.8 1622v27a12 12 0 0 1-12 12H1302a12 12 0 0 1-12-12v-9.5" stroke="#333" stroke-width="2" fill="none"/><path d="M1823.8 1622.03h-2V1621h2z" stroke="#333" stroke-width=".05" fill="#333"/><path d="M1290 1624.24l4.63 14.26h-9.27z" stroke="#333" stroke-width="2" fill="#333"/><path d="M1720 1640h240v77.6h-240z" stroke="#000" stroke-opacity="0" stroke-width="2" fill="#fff" fill-opacity="0"/><g><use xlink:href="#ab" transform="matrix(1,0,0,1,1725,1645) translate(106.2962962962963 40.266666666666666)"/></g><path d="M1120 1640h240v77.6h-240z" stroke="#000" stroke-opacity="0" stroke-width="2" fill="#fff" fill-opacity="0"/><g><use xlink:href="#ab" transform="matrix(1,0,0,1,1125,1645) translate(106.2962962962963 40.266666666666666)"/></g><path d="M1294.8 1639v.5" stroke="#333" stroke-width="2" fill="none"/><path d="M1295.8 1640h-2v-1.03h2z" stroke="#333" stroke-width=".05" fill="#333"/><path d="M1294.8 1624.24l4.63 14.26h-9.27z" stroke="#333" stroke-width="2" fill="#333"/><path d="M1662 870h27a12 12 0 0 1 12 12v436a12 12 0 0 0 12 12h915a12 12 0 0 0 12-12v-116.5" stroke="#333" stroke-width="2" fill="none"/><path d="M1662.03 871H1661v-2h1.03z" stroke="#333" stroke-width=".05" fill="#333"/><path d="M2640 1186.24l4.64 14.26h-9.28z" stroke="#333" stroke-width="2" fill="#333"/><defs><path fill="#333" d="M232-93c-1 65-40 97-104 97C67 4 28-28 28-90v-158h33c8 89-33 224 67 224 102 0 64-133 71-224h33v155" id="aA"/><path fill="#333" d="M135-143c-3-34-86-38-87 0 15 53 115 12 119 90S17 21 10-45l28-5c4 36 97 45 98 0-10-56-113-15-118-90-4-57 82-63 122-42 12 7 21 19 24 35" id="aB"/><path fill="#333" d="M100-194c63 0 86 42 84 106H49c0 40 14 67 53 68 26 1 43-12 49-29l28 8c-11 28-37 45-77 45C44 4 14-33 15-96c1-61 26-98 85-98zm52 81c6-60-76-77-97-28-3 7-6 17-6 28h103" id="aC"/><path fill="#333" d="M114-163C36-179 61-72 57 0H25l-1-190h30c1 12-1 29 2 39 6-27 23-49 58-41v29" id="aD"/><g id="a"><use transform="matrix(0.08086419753086417,0,0,0.08086419753086417,0,0)" xlink:href="#aA"/><use transform="matrix(0.08086419753086417,0,0,0.08086419753086417,20.94382716049382,0)" xlink:href="#aB"/><use transform="matrix(0.08086419753086417,0,0,0.08086419753086417,35.49938271604937,0)" xlink:href="#aC"/><use transform="matrix(0.08086419753086417,0,0,0.08086419753086417,51.6722222222222,0)" xlink:href="#aD"/></g><path fill="#333" d="M33 0v-248h34V0H33" id="aE"/><path fill="#333" d="M85-194c31 0 48 13 60 33l-1-100h32l1 261h-30c-2-10 0-23-3-31C134-8 116 4 85 4 32 4 16-35 15-94c0-66 23-100 70-100zm9 24c-40 0-46 34-46 75 0 40 6 74 45 74 42 0 51-32 51-76 0-42-9-74-50-73" id="aF"/><g id="b"><use transform="matrix(0.08086419753086417,0,0,0.08086419753086417,0,0)" xlink:href="#aE"/><use transform="matrix(0.08086419753086417,0,0,0.08086419753086417,8.086419753086417,0)" xlink:href="#aF"/></g><path fill="#333" d="M33-154v-36h34v36H33zM33 0v-36h34V0H33" id="aG"/><use transform="matrix(0.08086419753086417,0,0,0.08086419753086417,0,0)" xlink:href="#aG" id="c"/><path fill="#333" d="M30 0v-248h33v221h125V0H30" id="aH"/><path fill="#333" d="M140-251c81 0 123 46 123 126C263-46 219 4 140 4 59 4 17-45 17-125s42-126 123-126zm0 227c63 0 89-41 89-101s-29-99-89-99c-61 0-89 39-89 99S79-25 140-24" id="aI"/><path fill="#333" d="M190 0L58-211 59 0H30v-248h39L202-35l-2-213h31V0h-41" id="aJ"/><path fill="#333" d="M143 4C61 4 22-44 18-125c-5-107 100-154 193-111 17 8 29 25 37 43l-32 9c-13-25-37-40-76-40-61 0-88 39-88 99 0 61 29 100 91 101 35 0 62-11 79-27v-45h-74v-28h105v86C228-13 192 4 143 4" id="aK"/><g id="d"><use transform="matrix(0.08086419753086417,0,0,0.08086419753086417,0,0)" xlink:href="#aH"/><use transform="matrix(0.08086419753086417,0,0,0.08086419753086417,16.172839506172835,0)" xlink:href="#aI"/><use transform="matrix(0.08086419753086417,0,0,0.08086419753086417,38.8148148148148,0)" xlink:href="#aJ"/><use transform="matrix(0.08086419753086417,0,0,0.08086419753086417,59.75864197530862,0)" xlink:href="#aK"/></g><path fill="#333" d="M30-248c87 1 191-15 191 75 0 78-77 80-158 76V0H30v-248zm33 125c57 0 124 11 124-50 0-59-68-47-124-48v98" id="aL"/><path fill="#333" d="M106-169C34-169 62-67 57 0H25v-261h32l-1 103c12-21 28-36 61-36 89 0 53 116 60 194h-32v-121c2-32-8-49-39-48" id="aM"/><path fill="#333" d="M100-194c62-1 85 37 85 99 1 63-27 99-86 99S16-35 15-95c0-66 28-99 85-99zM99-20c44 1 53-31 53-75 0-43-8-75-51-75s-53 32-53 75 10 74 51 75" id="aN"/><path fill="#333" d="M117-194c89-4 53 116 60 194h-32v-121c0-31-8-49-39-48C34-167 62-67 57 0H25l-1-190h30c1 10-1 24 2 32 11-22 29-35 61-36" id="aO"/><g id="e"><use transform="matrix(0.08086419753086417,0,0,0.08086419753086417,0,0)" xlink:href="#aL"/><use transform="matrix(0.08086419753086417,0,0,0.08086419753086417,19.4074074074074,0)" xlink:href="#aM"/><use transform="matrix(0.08086419753086417,0,0,0.08086419753086417,35.58024691358024,0)" xlink:href="#aN"/><use transform="matrix(0.08086419753086417,0,0,0.08086419753086417,51.75308641975308,0)" xlink:href="#aO"/><use transform="matrix(0.08086419753086417,0,0,0.08086419753086417,67.92592592592591,0)" xlink:href="#aC"/></g><path fill="#333" d="M84 4C-5 8 30-112 23-190h32v120c0 31 7 50 39 49 72-2 45-101 50-169h31l1 190h-30c-1-10 1-25-2-33-11 22-28 36-60 37" id="aP"/><path fill="#333" d="M210-169c-67 3-38 105-44 169h-31v-121c0-29-5-50-35-48C34-165 62-65 56 0H25l-1-190h30c1 10-1 24 2 32 10-44 99-50 107 0 11-21 27-35 58-36 85-2 47 119 55 194h-31v-121c0-29-5-49-35-48" id="aQ"/><path fill="#333" d="M115-194c53 0 69 39 70 98 0 66-23 100-70 100C84 3 66-7 56-30L54 0H23l1-261h32v101c10-23 28-34 59-34zm-8 174c40 0 45-34 45-75 0-40-5-75-45-74-42 0-51 32-51 76 0 43 10 73 51 73" id="aR"/><g id="f"><use transform="matrix(0.08086419753086417,0,0,0.08086419753086417,0,0)" xlink:href="#aJ"/><use transform="matrix(0.08086419753086417,0,0,0.08086419753086417,20.94382716049382,0)" xlink:href="#aP"/><use transform="matrix(0.08086419753086417,0,0,0.08086419753086417,37.11666666666666,0)" xlink:href="#aQ"/><use transform="matrix(0.08086419753086417,0,0,0.08086419753086417,61.29506172839505,0)" xlink:href="#aR"/><use transform="matrix(0.08086419753086417,0,0,0.08086419753086417,77.46790123456788,0)" xlink:href="#aC"/><use transform="matrix(0.08086419753086417,0,0,0.08086419753086417,93.64074074074071,0)" xlink:href="#aD"/></g><path fill="#333" d="M185-189c-5-48-123-54-124 2 14 75 158 14 163 119 3 78-121 87-175 55-17-10-28-26-33-46l33-7c5 56 141 63 141-1 0-78-155-14-162-118-5-82 145-84 179-34 5 7 8 16 11 25" id="aS"/><path fill="#333" d="M127-220V0H93v-220H8v-28h204v28h-85" id="aT"/><path fill="#333" d="M233-177c-1 41-23 64-60 70L243 0h-38l-65-103H63V0H30v-248c88 3 205-21 203 71zM63-129c60-2 137 13 137-47 0-61-80-42-137-45v92" id="aU"/><g id="g"><use transform="matrix(0.08086419753086417,0,0,0.08086419753086417,0,0)" xlink:href="#aS"/><use transform="matrix(0.08086419753086417,0,0,0.08086419753086417,19.4074074074074,0)" xlink:href="#aT"/><use transform="matrix(0.08086419753086417,0,0,0.08086419753086417,37.11666666666665,0)" xlink:href="#aU"/><use transform="matrix(0.08086419753086417,0,0,0.08086419753086417,58.06049382716048,0)" xlink:href="#aE"/><use transform="matrix(0.08086419753086417,0,0,0.08086419753086417,66.14691358024689,0)" xlink:href="#aJ"/><use transform="matrix(0.08086419753086417,0,0,0.08086419753086417,87.09074074074071,0)" xlink:href="#aK"/></g><path fill="#333" d="M115-194c55 1 70 41 70 98S169 2 115 4C84 4 66-9 55-30l1 105H24l-1-265h31l2 30c10-21 28-34 59-34zm-8 174c40 0 45-34 45-75s-6-73-45-74c-42 0-51 32-51 76 0 43 10 73 51 73" id="aV"/><path fill="#333" d="M96-169c-40 0-48 33-48 73s9 75 48 75c24 0 41-14 43-38l32 2c-6 37-31 61-74 61-59 0-76-41-82-99-10-93 101-131 147-64 4 7 5 14 7 22l-32 3c-4-21-16-35-41-35" id="aW"/><path fill="#333" d="M24-231v-30h32v30H24zM24 0v-190h32V0H24" id="aX"/><path fill="#333" d="M101-234c-31-9-42 10-38 44h38v23H63V0H32v-167H5v-23h27c-7-52 17-82 69-68v24" id="aY"/><g id="h"><use transform="matrix(0.08086419753086417,0,0,0.08086419753086417,0,0)" xlink:href="#aS"/><use transform="matrix(0.08086419753086417,0,0,0.08086419753086417,19.4074074074074,0)" xlink:href="#aV"/><use transform="matrix(0.08086419753086417,0,0,0.08086419753086417,35.58024691358024,0)" xlink:href="#aC"/><use transform="matrix(0.08086419753086417,0,0,0.08086419753086417,51.75308641975308,0)" xlink:href="#aW"/><use transform="matrix(0.08086419753086417,0,0,0.08086419753086417,66.30864197530863,0)" xlink:href="#aX"/><use transform="matrix(0.08086419753086417,0,0,0.08086419753086417,72.6969135802469,0)" xlink:href="#aY"/><use transform="matrix(0.08086419753086417,0,0,0.08086419753086417,80.78333333333332,0)" xlink:href="#aX"/><use transform="matrix(0.08086419753086417,0,0,0.08086419753086417,87.17160493827157,0)" xlink:href="#aW"/><use transform="matrix(0.08086419753086417,0,0,0.08086419753086417,101.72716049382714,0)" xlink:href="#aB"/><use transform="matrix(0.08086419753086417,0,0,0.08086419753086417,116.28271604938267,0)" xlink:href="#aG"/></g><path fill="#333" d="M30-248c118-7 216 8 213 122C240-48 200 0 122 0H30v-248zM63-27c89 8 146-16 146-99s-60-101-146-95v194" id="aZ"/><path fill="#333" d="M59-47c-2 24 18 29 38 22v24C64 9 27 4 27-40v-127H5v-23h24l9-43h21v43h35v23H59v120" id="ba"/><path fill="#333" d="M141-36C126-15 110 5 73 4 37 3 15-17 15-53c-1-64 63-63 125-63 3-35-9-54-41-54-24 1-41 7-42 31l-33-3c5-37 33-52 76-52 45 0 72 20 72 64v82c-1 20 7 32 28 27v20c-31 9-61-2-59-35zM48-53c0 20 12 33 32 33 41-3 63-29 60-74-43 2-92-5-92 41" id="bb"/><path fill="#333" d="M24 0v-261h32V0H24" id="bc"/><g id="i"><use transform="matrix(0.08086419753086417,0,0,0.08086419753086417,0,0)" xlink:href="#aZ"/><use transform="matrix(0.08086419753086417,0,0,0.08086419753086417,20.94382716049382,0)" xlink:href="#aC"/><use transform="matrix(0.08086419753086417,0,0,0.08086419753086417,37.11666666666666,0)" xlink:href="#ba"/><use transform="matrix(0.08086419753086417,0,0,0.08086419753086417,45.20308641975308,0)" xlink:href="#bb"/><use transform="matrix(0.08086419753086417,0,0,0.08086419753086417,61.37592592592591,0)" xlink:href="#aX"/><use transform="matrix(0.08086419753086417,0,0,0.08086419753086417,67.76419753086418,0)" xlink:href="#bc"/></g><path fill="#333" d="M177-190C167-65 218 103 67 71c-23-6-38-20-44-43l32-5c15 47 100 32 89-28v-30C133-14 115 1 83 1 29 1 15-40 15-95c0-56 16-97 71-98 29-1 48 16 59 35 1-10 0-23 2-32h30zM94-22c36 0 50-32 50-73 0-42-14-75-50-75-39 0-46 34-46 75s6 73 46 73" id="bd"/><path fill="#333" d="M87 75C49 33 22-17 22-94c0-76 28-126 65-167h31c-38 41-64 92-64 168S80 34 118 75H87" id="be"/><path fill="#333" d="M33-261c38 41 65 92 65 168S71 34 33 75H2C39 34 66-17 66-93S39-220 2-261h31" id="bf"/><g id="k"><use transform="matrix(0.09320987654320984,0,0,0.09320987654320984,0,0)" xlink:href="#aS"/><use transform="matrix(0.09320987654320984,0,0,0.09320987654320984,22.37037037037036,0)" xlink:href="#aX"/><use transform="matrix(0.09320987654320984,0,0,0.09320987654320984,29.733950617283938,0)" xlink:href="#bd"/><use transform="matrix(0.09320987654320984,0,0,0.09320987654320984,48.375925925925905,0)" xlink:href="#aO"/><use transform="matrix(0.09320987654320984,0,0,0.09320987654320984,67.01790123456787,0)" xlink:href="#aA"/><use transform="matrix(0.09320987654320984,0,0,0.09320987654320984,91.15925925925922,0)" xlink:href="#aV"/><use transform="matrix(0.09320987654320984,0,0,0.09320987654320984,109.80123456790119,0)" xlink:href="#be"/><use transform="matrix(0.09320987654320984,0,0,0.09320987654320984,120.89320987654315,0)" xlink:href="#bf"/></g><g id="l"><use transform="matrix(0.09320987654320984,0,0,0.09320987654320984,0,0)" xlink:href="#aS"/><use transform="matrix(0.09320987654320984,0,0,0.09320987654320984,22.37037037037036,0)" xlink:href="#aX"/><use transform="matrix(0.09320987654320984,0,0,0.09320987654320984,29.733950617283938,0)" xlink:href="#bd"/><use transform="matrix(0.09320987654320984,0,0,0.09320987654320984,48.375925925925905,0)" xlink:href="#aO"/><use transform="matrix(0.09320987654320984,0,0,0.09320987654320984,67.01790123456787,0)" xlink:href="#aE"/><use transform="matrix(0.09320987654320984,0,0,0.09320987654320984,76.33888888888886,0)" xlink:href="#aO"/><use transform="matrix(0.09320987654320984,0,0,0.09320987654320984,94.98086419753082,0)" xlink:href="#be"/><use transform="matrix(0.09320987654320984,0,0,0.09320987654320984,106.0728395061728,0)" xlink:href="#bf"/></g><path fill="#333" d="M212-179c-10-28-35-45-73-45-59 0-87 40-87 99 0 60 29 101 89 101 43 0 62-24 78-52l27 14C228-24 195 4 139 4 59 4 22-46 18-125c-6-104 99-153 187-111 19 9 31 26 39 46" id="bg"/><g id="m"><use transform="matrix(0.09320987654320984,0,0,0.09320987654320984,0,0)" xlink:href="#bg"/><use transform="matrix(0.09320987654320984,0,0,0.09320987654320984,24.141358024691346,0)" xlink:href="#aN"/><use transform="matrix(0.09320987654320984,0,0,0.09320987654320984,42.78333333333332,0)" xlink:href="#aO"/><use transform="matrix(0.09320987654320984,0,0,0.09320987654320984,61.425308641975285,0)" xlink:href="#aO"/><use transform="matrix(0.09320987654320984,0,0,0.09320987654320984,80.06728395061725,0)" xlink:href="#aC"/><use transform="matrix(0.09320987654320984,0,0,0.09320987654320984,98.70925925925924,0)" xlink:href="#aW"/><use transform="matrix(0.09320987654320984,0,0,0.09320987654320984,115.48703703703701,0)" xlink:href="#ba"/><use transform="matrix(0.09320987654320984,0,0,0.09320987654320984,124.80802469135799,0)" xlink:href="#be"/><use transform="matrix(0.09320987654320984,0,0,0.09320987654320984,135.89999999999995,0)" xlink:href="#bf"/></g><path fill="#333" d="M205 0l-28-72H64L36 0H1l101-248h38L239 0h-34zm-38-99l-47-123c-12 45-31 82-46 123h93" id="bh"/><g id="n"><use transform="matrix(0.09320987654320984,0,0,0.09320987654320984,0,0)" xlink:href="#aZ"/><use transform="matrix(0.09320987654320984,0,0,0.09320987654320984,24.141358024691346,0)" xlink:href="#aC"/><use transform="matrix(0.09320987654320984,0,0,0.09320987654320984,42.78333333333332,0)" xlink:href="#bc"/><use transform="matrix(0.09320987654320984,0,0,0.09320987654320984,50.14691358024689,0)" xlink:href="#aC"/><use transform="matrix(0.09320987654320984,0,0,0.09320987654320984,68.78888888888886,0)" xlink:href="#ba"/><use transform="matrix(0.09320987654320984,0,0,0.09320987654320984,78.10987654320985,0)" xlink:href="#aC"/><use transform="matrix(0.09320987654320984,0,0,0.09320987654320984,96.75185185185182,0)" xlink:href="#bh"/><use transform="matrix(0.09320987654320984,0,0,0.09320987654320984,119.12222222222216,0)" xlink:href="#aW"/><use transform="matrix(0.09320987654320984,0,0,0.09320987654320984,135.89999999999995,0)" xlink:href="#aW"/><use transform="matrix(0.09320987654320984,0,0,0.09320987654320984,152.67777777777772,0)" xlink:href="#aN"/><use transform="matrix(0.09320987654320984,0,0,0.09320987654320984,171.3197530864197,0)" xlink:href="#aP"/><use transform="matrix(0.09320987654320984,0,0,0.09320987654320984,189.96172839506167,0)" xlink:href="#aO"/><use transform="matrix(0.09320987654320984,0,0,0.09320987654320984,208.60370370370364,0)" xlink:href="#ba"/><use transform="matrix(0.09320987654320984,0,0,0.09320987654320984,217.92469135802463,0)" xlink:href="#be"/><use transform="matrix(0.09320987654320984,0,0,0.09320987654320984,229.0166666666666,0)" xlink:href="#bf"/></g><path fill="#333" d="M197 0v-115H63V0H30v-248h33v105h134v-105h34V0h-34" id="bi"/><path fill="#333" d="M179-190L93 31C79 59 56 82 12 73V49c39 6 53-20 64-50L1-190h34L92-34l54-156h33" id="bj"/><g id="o"><use transform="matrix(0.09320987654320984,0,0,0.09320987654320984,0,0)" xlink:href="#aK"/><use transform="matrix(0.09320987654320984,0,0,0.09320987654320984,26.098765432098755,0)" xlink:href="#aC"/><use transform="matrix(0.09320987654320984,0,0,0.09320987654320984,44.74074074074072,0)" xlink:href="#ba"/><use transform="matrix(0.09320987654320984,0,0,0.09320987654320984,54.06172839506171,0)" xlink:href="#bi"/><use transform="matrix(0.09320987654320984,0,0,0.09320987654320984,78.20308641975305,0)" xlink:href="#aX"/><use transform="matrix(0.09320987654320984,0,0,0.09320987654320984,85.56666666666662,0)" xlink:href="#aB"/><use transform="matrix(0.09320987654320984,0,0,0.09320987654320984,102.3444444444444,0)" xlink:href="#ba"/><use transform="matrix(0.09320987654320984,0,0,0.09320987654320984,111.66543209876538,0)" xlink:href="#aN"/><use transform="matrix(0.09320987654320984,0,0,0.09320987654320984,130.30740740740734,0)" xlink:href="#aD"/><use transform="matrix(0.09320987654320984,0,0,0.09320987654320984,141.3993827160493,0)" xlink:href="#bj"/><use transform="matrix(0.09320987654320984,0,0,0.09320987654320984,158.17716049382707,0)" xlink:href="#be"/><use transform="matrix(0.09320987654320984,0,0,0.09320987654320984,169.26913580246904,0)" xlink:href="#bf"/></g><g id="p"><use transform="matrix(0.09320987654320984,0,0,0.09320987654320984,0,0)" xlink:href="#aZ"/><use transform="matrix(0.09320987654320984,0,0,0.09320987654320984,24.141358024691346,0)" xlink:href="#aC"/><use transform="matrix(0.09320987654320984,0,0,0.09320987654320984,42.78333333333332,0)" xlink:href="#bc"/><use transform="matrix(0.09320987654320984,0,0,0.09320987654320984,50.14691358024689,0)" xlink:href="#aC"/><use transform="matrix(0.09320987654320984,0,0,0.09320987654320984,68.78888888888886,0)" xlink:href="#ba"/><use transform="matrix(0.09320987654320984,0,0,0.09320987654320984,78.10987654320985,0)" xlink:href="#aC"/><use transform="matrix(0.09320987654320984,0,0,0.09320987654320984,96.75185185185182,0)" xlink:href="#bi"/><use transform="matrix(0.09320987654320984,0,0,0.09320987654320984,120.89320987654318,0)" xlink:href="#aX"/><use transform="matrix(0.09320987654320984,0,0,0.09320987654320984,128.25679012345674,0)" xlink:href="#aB"/><use transform="matrix(0.09320987654320984,0,0,0.09320987654320984,145.0345679012345,0)" xlink:href="#ba"/><use transform="matrix(0.09320987654320984,0,0,0.09320987654320984,154.3555555555555,0)" xlink:href="#aN"/><use transform="matrix(0.09320987654320984,0,0,0.09320987654320984,172.99753086419747,0)" xlink:href="#aD"/><use transform="matrix(0.09320987654320984,0,0,0.09320987654320984,184.08950617283944,0)" xlink:href="#bj"/><use transform="matrix(0.09320987654320984,0,0,0.09320987654320984,200.8672839506172,0)" xlink:href="#be"/><use transform="matrix(0.09320987654320984,0,0,0.09320987654320984,211.95925925925917,0)" xlink:href="#bf"/></g><path fill="#333" d="M160-131c35 5 61 23 61 61C221 17 115-2 30 0v-248c76 3 177-17 177 60 0 33-19 50-47 57zm-97-11c50-1 110 9 110-42 0-47-63-36-110-37v79zm0 115c55-2 124 14 124-45 0-56-70-42-124-44v89" id="bk"/><path fill="#333" d="M143 0L79-87 56-68V0H24v-261h32v163l83-92h37l-77 82L181 0h-38" id="bl"/><g id="q"><use transform="matrix(0.09320987654320984,0,0,0.09320987654320984,0,0)" xlink:href="#aZ"/><use transform="matrix(0.09320987654320984,0,0,0.09320987654320984,24.141358024691346,0)" xlink:href="#aN"/><use transform="matrix(0.09320987654320984,0,0,0.09320987654320984,42.78333333333332,0)" xlink:href="#bk"/><use transform="matrix(0.09320987654320984,0,0,0.09320987654320984,65.15370370370368,0)" xlink:href="#bb"/><use transform="matrix(0.09320987654320984,0,0,0.09320987654320984,83.79567901234566,0)" xlink:href="#aW"/><use transform="matrix(0.09320987654320984,0,0,0.09320987654320984,100.57345679012343,0)" xlink:href="#bl"/><use transform="matrix(0.09320987654320984,0,0,0.09320987654320984,117.3512345679012,0)" xlink:href="#aA"/><use transform="matrix(0.09320987654320984,0,0,0.09320987654320984,141.49259259259256,0)" xlink:href="#aV"/><use transform="matrix(0.09320987654320984,0,0,0.09320987654320984,160.13456790123453,0)" xlink:href="#be"/><use transform="matrix(0.09320987654320984,0,0,0.09320987654320984,171.2265432098765,0)" xlink:href="#bf"/></g><path fill="#333" d="M240 0l2-218c-23 76-54 145-80 218h-23L58-218 59 0H30v-248h44l77 211c21-75 51-140 76-211h43V0h-30" id="bm"/><g id="t"><use transform="matrix(0.08086419753086417,0,0,0.08086419753086417,0,0)" xlink:href="#bm"/><use transform="matrix(0.08086419753086417,0,0,0.08086419753086417,24.178395061728388,0)" xlink:href="#aC"/><use transform="matrix(0.08086419753086417,0,0,0.08086419753086417,40.35123456790122,0)" xlink:href="#aB"/><use transform="matrix(0.08086419753086417,0,0,0.08086419753086417,54.90679012345677,0)" xlink:href="#aB"/><use transform="matrix(0.08086419753086417,0,0,0.08086419753086417,69.46234567901232,0)" xlink:href="#bb"/><use transform="matrix(0.08086419753086417,0,0,0.08086419753086417,85.63518518518515,0)" xlink:href="#bd"/><use transform="matrix(0.08086419753086417,0,0,0.08086419753086417,101.80802469135799,0)" xlink:href="#aC"/></g><g id="u"><use transform="matrix(0.08086419753086417,0,0,0.08086419753086417,0,0)" xlink:href="#bm"/><use transform="matrix(0.08086419753086417,0,0,0.08086419753086417,24.178395061728388,0)" xlink:href="#aC"/><use transform="matrix(0.08086419753086417,0,0,0.08086419753086417,40.35123456790122,0)" xlink:href="#aB"/><use transform="matrix(0.08086419753086417,0,0,0.08086419753086417,54.90679012345677,0)" xlink:href="#aB"/><use transform="matrix(0.08086419753086417,0,0,0.08086419753086417,69.46234567901232,0)" xlink:href="#bb"/><use transform="matrix(0.08086419753086417,0,0,0.08086419753086417,85.63518518518515,0)" xlink:href="#bd"/><use transform="matrix(0.08086419753086417,0,0,0.08086419753086417,101.80802469135799,0)" xlink:href="#aC"/></g><g id="v"><use transform="matrix(0.08086419753086417,0,0,0.08086419753086417,0,0)" xlink:href="#aX"/><use transform="matrix(0.08086419753086417,0,0,0.08086419753086417,6.38827160493827,0)" xlink:href="#aF"/></g><g id="w"><use transform="matrix(0.08086419753086417,0,0,0.08086419753086417,0,0)" xlink:href="#bg"/><use transform="matrix(0.08086419753086417,0,0,0.08086419753086417,20.94382716049382,0)" xlink:href="#aN"/><use transform="matrix(0.08086419753086417,0,0,0.08086419753086417,37.11666666666666,0)" xlink:href="#aO"/><use transform="matrix(0.08086419753086417,0,0,0.08086419753086417,53.289506172839495,0)" xlink:href="#ba"/><use transform="matrix(0.08086419753086417,0,0,0.08086419753086417,61.37592592592591,0)" xlink:href="#aC"/><use transform="matrix(0.08086419753086417,0,0,0.08086419753086417,77.54876543209875,0)" xlink:href="#aO"/><use transform="matrix(0.08086419753086417,0,0,0.08086419753086417,93.72160493827157,0)" xlink:href="#ba"/></g><path fill="#333" d="M30 0v-248h187v28H63v79h144v27H63v87h162V0H30" id="bn"/><g id="x"><use transform="matrix(0.08086419753086417,0,0,0.08086419753086417,0,0)" xlink:href="#aE"/><use transform="matrix(0.08086419753086417,0,0,0.08086419753086417,8.086419753086417,0)" xlink:href="#bg"/><use transform="matrix(0.08086419753086417,0,0,0.08086419753086417,29.03024691358024,0)" xlink:href="#aI"/><use transform="matrix(0.08086419753086417,0,0,0.08086419753086417,51.6722222222222,0)" xlink:href="#aJ"/><use transform="matrix(0.08086419753086417,0,0,0.08086419753086417,72.61604938271603,0)" xlink:href="#aT"/><use transform="matrix(0.08086419753086417,0,0,0.08086419753086417,90.32530864197528,0)" xlink:href="#bn"/><use transform="matrix(0.08086419753086417,0,0,0.08086419753086417,109.73271604938267,0)" xlink:href="#aJ"/><use transform="matrix(0.08086419753086417,0,0,0.08086419753086417,130.6765432098765,0)" xlink:href="#aT"/></g><g id="y"><use transform="matrix(0.08086419753086417,0,0,0.08086419753086417,0,0)" xlink:href="#aS"/><use transform="matrix(0.08086419753086417,0,0,0.08086419753086417,19.4074074074074,0)" xlink:href="#aC"/><use transform="matrix(0.08086419753086417,0,0,0.08086419753086417,35.58024691358024,0)" xlink:href="#aO"/><use transform="matrix(0.08086419753086417,0,0,0.08086419753086417,51.75308641975308,0)" xlink:href="#aF"/><use transform="matrix(0.08086419753086417,0,0,0.08086419753086417,67.92592592592591,0)" xlink:href="#aC"/><use transform="matrix(0.08086419753086417,0,0,0.08086419753086417,84.09876543209874,0)" xlink:href="#aD"/></g><path fill="#333" d="M108 0H70L1-190h34L89-25l56-165h34" id="bo"/><g id="z"><use transform="matrix(0.08086419753086417,0,0,0.08086419753086417,0,0)" xlink:href="#aU"/><use transform="matrix(0.08086419753086417,0,0,0.08086419753086417,20.94382716049382,0)" xlink:href="#aC"/><use transform="matrix(0.08086419753086417,0,0,0.08086419753086417,37.11666666666666,0)" xlink:href="#aW"/><use transform="matrix(0.08086419753086417,0,0,0.08086419753086417,51.67222222222222,0)" xlink:href="#aC"/><use transform="matrix(0.08086419753086417,0,0,0.08086419753086417,67.84506172839505,0)" xlink:href="#aX"/><use transform="matrix(0.08086419753086417,0,0,0.08086419753086417,74.23333333333332,0)" xlink:href="#bo"/><use transform="matrix(0.08086419753086417,0,0,0.08086419753086417,88.78888888888886,0)" xlink:href="#aC"/><use transform="matrix(0.08086419753086417,0,0,0.08086419753086417,104.9617283950617,0)" xlink:href="#aD"/></g><g id="A"><use transform="matrix(0.08086419753086417,0,0,0.08086419753086417,0,0)" xlink:href="#aE"/><use transform="matrix(0.08086419753086417,0,0,0.08086419753086417,8.086419753086417,0)" xlink:href="#aF"/></g><g id="B"><use transform="matrix(0.08086419753086417,0,0,0.08086419753086417,0,0)" xlink:href="#aT"/><use transform="matrix(0.08086419753086417,0,0,0.08086419753086417,16.65802469135802,0)" xlink:href="#aX"/><use transform="matrix(0.08086419753086417,0,0,0.08086419753086417,23.046296296296287,0)" xlink:href="#aQ"/><use transform="matrix(0.08086419753086417,0,0,0.08086419753086417,47.22469135802468,0)" xlink:href="#aC"/><use transform="matrix(0.08086419753086417,0,0,0.08086419753086417,63.39753086419751,0)" xlink:href="#aS"/><use transform="matrix(0.08086419753086417,0,0,0.08086419753086417,82.80493827160491,0)" xlink:href="#ba"/><use transform="matrix(0.08086419753086417,0,0,0.08086419753086417,90.89135802469133,0)" xlink:href="#bb"/><use transform="matrix(0.08086419753086417,0,0,0.08086419753086417,107.06419753086416,0)" xlink:href="#aQ"/><use transform="matrix(0.08086419753086417,0,0,0.08086419753086417,131.24259259259256,0)" xlink:href="#aV"/><use transform="matrix(0.08086419753086417,0,0,0.08086419753086417,147.4154320987654,0)" xlink:href="#aG"/></g><g id="C"><use transform="matrix(0.08086419753086417,0,0,0.08086419753086417,0,0)" xlink:href="#aZ"/><use transform="matrix(0.08086419753086417,0,0,0.08086419753086417,20.94382716049382,0)" xlink:href="#bh"/><use transform="matrix(0.08086419753086417,0,0,0.08086419753086417,38.16790123456789,0)" xlink:href="#aT"/><use transform="matrix(0.08086419753086417,0,0,0.08086419753086417,55.87716049382715,0)" xlink:href="#bn"/><use transform="matrix(0.08086419753086417,0,0,0.08086419753086417,75.28456790123455,0)" xlink:href="#aT"/><use transform="matrix(0.08086419753086417,0,0,0.08086419753086417,92.99382716049381,0)" xlink:href="#aE"/><use transform="matrix(0.08086419753086417,0,0,0.08086419753086417,101.08024691358023,0)" xlink:href="#bm"/><use transform="matrix(0.08086419753086417,0,0,0.08086419753086417,125.25864197530862,0)" xlink:href="#bn"/></g><g id="D"><use transform="matrix(0.08086419753086417,0,0,0.08086419753086417,0,0)" xlink:href="#aS"/><use transform="matrix(0.08086419753086417,0,0,0.08086419753086417,19.4074074074074,0)" xlink:href="#ba"/><use transform="matrix(0.08086419753086417,0,0,0.08086419753086417,27.49382716049382,0)" xlink:href="#bb"/><use transform="matrix(0.08086419753086417,0,0,0.08086419753086417,43.666666666666664,0)" xlink:href="#ba"/><use transform="matrix(0.08086419753086417,0,0,0.08086419753086417,51.75308641975308,0)" xlink:href="#aP"/><use transform="matrix(0.08086419753086417,0,0,0.08086419753086417,67.92592592592591,0)" xlink:href="#aB"/></g><g id="E"><use transform="matrix(0.08086419753086417,0,0,0.08086419753086417,0,0)" xlink:href="#aS"/><use transform="matrix(0.08086419753086417,0,0,0.08086419753086417,19.4074074074074,0)" xlink:href="#aT"/><use transform="matrix(0.08086419753086417,0,0,0.08086419753086417,34.93333333333332,0)" xlink:href="#bh"/><use transform="matrix(0.08086419753086417,0,0,0.08086419753086417,52.15740740740739,0)" xlink:href="#aT"/><use transform="matrix(0.08086419753086417,0,0,0.08086419753086417,69.86666666666665,0)" xlink:href="#aA"/><use transform="matrix(0.08086419753086417,0,0,0.08086419753086417,90.81049382716047,0)" xlink:href="#aS"/></g><g id="F"><use transform="matrix(0.09320987654320984,0,0,0.09320987654320984,0,0)" xlink:href="#aS"/><use transform="matrix(0.09320987654320984,0,0,0.09320987654320984,22.37037037037036,0)" xlink:href="#aC"/><use transform="matrix(0.09320987654320984,0,0,0.09320987654320984,41.01234567901233,0)" xlink:href="#aO"/><use transform="matrix(0.09320987654320984,0,0,0.09320987654320984,59.654320987654295,0)" xlink:href="#aF"/><use transform="matrix(0.09320987654320984,0,0,0.09320987654320984,78.29629629629626,0)" xlink:href="#bm"/><use transform="matrix(0.09320987654320984,0,0,0.09320987654320984,106.166049382716,0)" xlink:href="#aC"/><use transform="matrix(0.09320987654320984,0,0,0.09320987654320984,124.80802469135799,0)" xlink:href="#aB"/><use transform="matrix(0.09320987654320984,0,0,0.09320987654320984,141.58580246913576,0)" xlink:href="#aB"/><use transform="matrix(0.09320987654320984,0,0,0.09320987654320984,158.36358024691353,0)" xlink:href="#bb"/><use transform="matrix(0.09320987654320984,0,0,0.09320987654320984,177.0055555555555,0)" xlink:href="#bd"/><use transform="matrix(0.09320987654320984,0,0,0.09320987654320984,195.64753086419748,0)" xlink:href="#aC"/><use transform="matrix(0.09320987654320984,0,0,0.09320987654320984,214.28950617283945,0)" xlink:href="#be"/><use transform="matrix(0.09320987654320984,0,0,0.09320987654320984,225.38148148148142,0)" xlink:href="#bf"/></g><g id="G"><use transform="matrix(0.09320987654320984,0,0,0.09320987654320984,0,0)" xlink:href="#aU"/><use transform="matrix(0.09320987654320984,0,0,0.09320987654320984,24.141358024691346,0)" xlink:href="#aC"/><use transform="matrix(0.09320987654320984,0,0,0.09320987654320984,42.78333333333332,0)" xlink:href="#aW"/><use transform="matrix(0.09320987654320984,0,0,0.09320987654320984,59.56111111111108,0)" xlink:href="#aC"/><use transform="matrix(0.09320987654320984,0,0,0.09320987654320984,78.20308641975305,0)" xlink:href="#aX"/><use transform="matrix(0.09320987654320984,0,0,0.09320987654320984,85.56666666666662,0)" xlink:href="#bo"/><use transform="matrix(0.09320987654320984,0,0,0.09320987654320984,102.3444444444444,0)" xlink:href="#aC"/><use transform="matrix(0.09320987654320984,0,0,0.09320987654320984,120.98641975308635,0)" xlink:href="#bm"/><use transform="matrix(0.09320987654320984,0,0,0.09320987654320984,148.8561728395061,0)" xlink:href="#aC"/><use transform="matrix(0.09320987654320984,0,0,0.09320987654320984,167.49814814814806,0)" xlink:href="#aB"/><use transform="matrix(0.09320987654320984,0,0,0.09320987654320984,184.27592592592583,0)" xlink:href="#aB"/><use transform="matrix(0.09320987654320984,0,0,0.09320987654320984,201.0537037037036,0)" xlink:href="#bb"/><use transform="matrix(0.09320987654320984,0,0,0.09320987654320984,219.69567901234558,0)" xlink:href="#bd"/><use transform="matrix(0.09320987654320984,0,0,0.09320987654320984,238.33765432098755,0)" xlink:href="#aC"/><use transform="matrix(0.09320987654320984,0,0,0.09320987654320984,256.9796296296295,0)" xlink:href="#be"/><use transform="matrix(0.09320987654320984,0,0,0.09320987654320984,268.0716049382715,0)" xlink:href="#bf"/></g><g id="H"><use transform="matrix(0.09320987654320984,0,0,0.09320987654320984,0,0)" xlink:href="#bm"/><use transform="matrix(0.09320987654320984,0,0,0.09320987654320984,27.869753086419742,0)" xlink:href="#aC"/><use transform="matrix(0.09320987654320984,0,0,0.09320987654320984,46.51172839506171,0)" xlink:href="#aB"/><use transform="matrix(0.09320987654320984,0,0,0.09320987654320984,63.28950617283948,0)" xlink:href="#aB"/><use transform="matrix(0.09320987654320984,0,0,0.09320987654320984,80.06728395061725,0)" xlink:href="#bb"/><use transform="matrix(0.09320987654320984,0,0,0.09320987654320984,98.70925925925924,0)" xlink:href="#bd"/><use transform="matrix(0.09320987654320984,0,0,0.09320987654320984,117.3512345679012,0)" xlink:href="#aC"/><use transform="matrix(0.09320987654320984,0,0,0.09320987654320984,135.99320987654318,0)" xlink:href="#aS"/><use transform="matrix(0.09320987654320984,0,0,0.09320987654320984,158.36358024691353,0)" xlink:href="#ba"/><use transform="matrix(0.09320987654320984,0,0,0.09320987654320984,167.68456790123452,0)" xlink:href="#bb"/><use transform="matrix(0.09320987654320984,0,0,0.09320987654320984,186.3265432098765,0)" xlink:href="#ba"/><use transform="matrix(0.09320987654320984,0,0,0.09320987654320984,195.64753086419748,0)" xlink:href="#aP"/><use transform="matrix(0.09320987654320984,0,0,0.09320987654320984,214.28950617283945,0)" xlink:href="#aB"/><use transform="matrix(0.09320987654320984,0,0,0.09320987654320984,231.06728395061722,0)" xlink:href="#be"/><use transform="matrix(0.09320987654320984,0,0,0.09320987654320984,242.1592592592592,0)" xlink:href="#bf"/></g><path fill="#333" d="M18-100v-36l175-74v27L42-118l151 64v27" id="bp"/><path fill="#333" d="M18-27v-27l151-64-151-65v-27l175 74v36" id="bq"/><g id="I"><use transform="matrix(0.07469135802469135,0,0,0.07469135802469135,0,0)" xlink:href="#bp"/><use transform="matrix(0.07469135802469135,0,0,0.07469135802469135,15.685185185185183,0)" xlink:href="#bp"/><use transform="matrix(0.07469135802469135,0,0,0.07469135802469135,31.370370370370367,0)" xlink:href="#aE"/><use transform="matrix(0.07469135802469135,0,0,0.07469135802469135,38.8395061728395,0)" xlink:href="#bm"/><use transform="matrix(0.07469135802469135,0,0,0.07469135802469135,61.17222222222221,0)" xlink:href="#bn"/><use transform="matrix(0.07469135802469135,0,0,0.07469135802469135,79.09814814814814,0)" xlink:href="#aS"/><use transform="matrix(0.07469135802469135,0,0,0.07469135802469135,97.02407407407406,0)" xlink:href="#aS"/><use transform="matrix(0.07469135802469135,0,0,0.07469135802469135,114.94999999999997,0)" xlink:href="#bh"/><use transform="matrix(0.07469135802469135,0,0,0.07469135802469135,132.8759259259259,0)" xlink:href="#aK"/><use transform="matrix(0.07469135802469135,0,0,0.07469135802469135,153.78950617283948,0)" xlink:href="#bn"/><use transform="matrix(0.07469135802469135,0,0,0.07469135802469135,171.7154320987654,0)" xlink:href="#bq"/><use transform="matrix(0.07469135802469135,0,0,0.07469135802469135,187.4006172839506,0)" xlink:href="#bq"/></g><g id="J"><use transform="matrix(0.07469135802469135,0,0,0.07469135802469135,0,0)" xlink:href="#aE"/><use transform="matrix(0.07469135802469135,0,0,0.07469135802469135,7.469135802469134,0)" xlink:href="#aO"/><use transform="matrix(0.07469135802469135,0,0,0.07469135802469135,22.407407407407405,0)" xlink:href="#ba"/><use transform="matrix(0.07469135802469135,0,0,0.07469135802469135,29.876543209876537,0)" xlink:href="#aC"/><use transform="matrix(0.07469135802469135,0,0,0.07469135802469135,44.81481481481481,0)" xlink:href="#aD"/><use transform="matrix(0.07469135802469135,0,0,0.07469135802469135,53.70308641975308,0)" xlink:href="#aY"/><use transform="matrix(0.07469135802469135,0,0,0.07469135802469135,61.17222222222221,0)" xlink:href="#bb"/><use transform="matrix(0.07469135802469135,0,0,0.07469135802469135,76.11049382716048,0)" xlink:href="#aW"/><use transform="matrix(0.07469135802469135,0,0,0.07469135802469135,89.55493827160493,0)" xlink:href="#aC"/></g><g id="K"><use transform="matrix(0.08086419753086417,0,0,0.08086419753086417,0,0)" xlink:href="#aK"/><use transform="matrix(0.08086419753086417,0,0,0.08086419753086417,22.641975308641968,0)" xlink:href="#aD"/><use transform="matrix(0.08086419753086417,0,0,0.08086419753086417,32.264814814814805,0)" xlink:href="#aN"/><use transform="matrix(0.08086419753086417,0,0,0.08086419753086417,48.43765432098764,0)" xlink:href="#aP"/><use transform="matrix(0.08086419753086417,0,0,0.08086419753086417,64.61049382716047,0)" xlink:href="#aV"/><use transform="matrix(0.08086419753086417,0,0,0.08086419753086417,80.7833333333333,0)" xlink:href="#bm"/><use transform="matrix(0.08086419753086417,0,0,0.08086419753086417,104.9617283950617,0)" xlink:href="#aC"/><use transform="matrix(0.08086419753086417,0,0,0.08086419753086417,121.13456790123453,0)" xlink:href="#aB"/><use transform="matrix(0.08086419753086417,0,0,0.08086419753086417,135.69012345679008,0)" xlink:href="#aB"/><use transform="matrix(0.08086419753086417,0,0,0.08086419753086417,150.24567901234562,0)" xlink:href="#bb"/><use transform="matrix(0.08086419753086417,0,0,0.08086419753086417,166.41851851851845,0)" xlink:href="#bd"/><use transform="matrix(0.08086419753086417,0,0,0.08086419753086417,182.5913580246913,0)" xlink:href="#aC"/></g><g id="L"><use transform="matrix(0.08086419753086417,0,0,0.08086419753086417,0,0)" xlink:href="#aH"/><use transform="matrix(0.08086419753086417,0,0,0.08086419753086417,16.172839506172835,0)" xlink:href="#aX"/><use transform="matrix(0.08086419753086417,0,0,0.08086419753086417,22.561111111111103,0)" xlink:href="#aB"/><use transform="matrix(0.08086419753086417,0,0,0.08086419753086417,37.11666666666665,0)" xlink:href="#ba"/><use transform="matrix(0.08086419753086417,0,0,0.08086419753086417,45.20308641975307,0)" xlink:href="#bp"/><use transform="matrix(0.08086419753086417,0,0,0.08086419753086417,62.184567901234544,0)" xlink:href="#aU"/><use transform="matrix(0.08086419753086417,0,0,0.08086419753086417,83.12839506172837,0)" xlink:href="#aC"/><use transform="matrix(0.08086419753086417,0,0,0.08086419753086417,99.3012345679012,0)" xlink:href="#aW"/><use transform="matrix(0.08086419753086417,0,0,0.08086419753086417,113.85679012345675,0)" xlink:href="#aC"/><use transform="matrix(0.08086419753086417,0,0,0.08086419753086417,130.0296296296296,0)" xlink:href="#aX"/><use transform="matrix(0.08086419753086417,0,0,0.08086419753086417,136.41790123456786,0)" xlink:href="#bo"/><use transform="matrix(0.08086419753086417,0,0,0.08086419753086417,150.9734567901234,0)" xlink:href="#aC"/><use transform="matrix(0.08086419753086417,0,0,0.08086419753086417,167.14629629629624,0)" xlink:href="#aD"/></g><g id="M"><use transform="matrix(0.08086419753086417,0,0,0.08086419753086417,0,0)" xlink:href="#aE"/><use transform="matrix(0.08086419753086417,0,0,0.08086419753086417,8.086419753086417,0)" xlink:href="#aF"/><use transform="matrix(0.08086419753086417,0,0,0.08086419753086417,24.259259259259252,0)" xlink:href="#bq"/></g><g id="N"><use transform="matrix(0.07469135802469135,0,0,0.07469135802469135,0,0)" xlink:href="#bp"/><use transform="matrix(0.07469135802469135,0,0,0.07469135802469135,15.685185185185183,0)" xlink:href="#bp"/><use transform="matrix(0.07469135802469135,0,0,0.07469135802469135,31.370370370370367,0)" xlink:href="#aE"/><use transform="matrix(0.07469135802469135,0,0,0.07469135802469135,38.8395061728395,0)" xlink:href="#bg"/><use transform="matrix(0.07469135802469135,0,0,0.07469135802469135,58.18456790123456,0)" xlink:href="#aI"/><use transform="matrix(0.07469135802469135,0,0,0.07469135802469135,79.09814814814814,0)" xlink:href="#aJ"/><use transform="matrix(0.07469135802469135,0,0,0.07469135802469135,98.4432098765432,0)" xlink:href="#aT"/><use transform="matrix(0.07469135802469135,0,0,0.07469135802469135,114.8006172839506,0)" xlink:href="#bn"/><use transform="matrix(0.07469135802469135,0,0,0.07469135802469135,132.72654320987652,0)" xlink:href="#aJ"/><use transform="matrix(0.07469135802469135,0,0,0.07469135802469135,152.07160493827158,0)" xlink:href="#aT"/><use transform="matrix(0.07469135802469135,0,0,0.07469135802469135,168.42901234567898,0)" xlink:href="#bq"/><use transform="matrix(0.07469135802469135,0,0,0.07469135802469135,184.11419753086417,0)" xlink:href="#bq"/></g><g id="O"><use transform="matrix(0.07469135802469135,0,0,0.07469135802469135,0,0)" xlink:href="#aE"/><use transform="matrix(0.07469135802469135,0,0,0.07469135802469135,7.469135802469134,0)" xlink:href="#aO"/><use transform="matrix(0.07469135802469135,0,0,0.07469135802469135,22.407407407407405,0)" xlink:href="#ba"/><use transform="matrix(0.07469135802469135,0,0,0.07469135802469135,29.876543209876537,0)" xlink:href="#aC"/><use transform="matrix(0.07469135802469135,0,0,0.07469135802469135,44.81481481481481,0)" xlink:href="#aD"/><use transform="matrix(0.07469135802469135,0,0,0.07469135802469135,53.70308641975308,0)" xlink:href="#aY"/><use transform="matrix(0.07469135802469135,0,0,0.07469135802469135,61.17222222222221,0)" xlink:href="#bb"/><use transform="matrix(0.07469135802469135,0,0,0.07469135802469135,76.11049382716048,0)" xlink:href="#aW"/><use transform="matrix(0.07469135802469135,0,0,0.07469135802469135,89.55493827160493,0)" xlink:href="#aC"/></g><g id="P"><use transform="matrix(0.07469135802469135,0,0,0.07469135802469135,0,0)" xlink:href="#bd"/><use transform="matrix(0.07469135802469135,0,0,0.07469135802469135,14.938271604938269,0)" xlink:href="#aC"/><use transform="matrix(0.07469135802469135,0,0,0.07469135802469135,29.876543209876537,0)" xlink:href="#ba"/><use transform="matrix(0.07469135802469135,0,0,0.07469135802469135,37.34567901234567,0)" xlink:href="#bg"/><use transform="matrix(0.07469135802469135,0,0,0.07469135802469135,56.69074074074073,0)" xlink:href="#aN"/><use transform="matrix(0.07469135802469135,0,0,0.07469135802469135,71.629012345679,0)" xlink:href="#aO"/><use transform="matrix(0.07469135802469135,0,0,0.07469135802469135,86.56728395061727,0)" xlink:href="#ba"/><use transform="matrix(0.07469135802469135,0,0,0.07469135802469135,94.0364197530864,0)" xlink:href="#aC"/><use transform="matrix(0.07469135802469135,0,0,0.07469135802469135,108.97469135802467,0)" xlink:href="#aO"/><use transform="matrix(0.07469135802469135,0,0,0.07469135802469135,123.91296296296294,0)" xlink:href="#ba"/><use transform="matrix(0.07469135802469135,0,0,0.07469135802469135,131.38209876543206,0)" xlink:href="#be"/><use transform="matrix(0.07469135802469135,0,0,0.07469135802469135,140.27037037037033,0)" xlink:href="#bf"/></g><path fill="#333" d="M24-231v-30h32v30H24zM-9 49c24 4 33-6 33-30v-209h32V24c2 40-23 58-65 49V49" id="br"/><g id="Q"><use transform="matrix(0.07469135802469135,0,0,0.07469135802469135,0,0)" xlink:href="#bn"/><use transform="matrix(0.07469135802469135,0,0,0.07469135802469135,17.925925925925924,0)" xlink:href="#aQ"/><use transform="matrix(0.07469135802469135,0,0,0.07469135802469135,40.258641975308635,0)" xlink:href="#aN"/><use transform="matrix(0.07469135802469135,0,0,0.07469135802469135,55.19691358024689,0)" xlink:href="#br"/><use transform="matrix(0.07469135802469135,0,0,0.07469135802469135,61.09753086419751,0)" xlink:href="#aX"/><use transform="matrix(0.07469135802469135,0,0,0.07469135802469135,66.99814814814813,0)" xlink:href="#aC"/><use transform="matrix(0.07469135802469135,0,0,0.07469135802469135,81.93641975308638,0)" xlink:href="#aB"/></g><g id="R"><use transform="matrix(0.07469135802469135,0,0,0.07469135802469135,0,0)" xlink:href="#aE"/><use transform="matrix(0.07469135802469135,0,0,0.07469135802469135,7.469135802469134,0)" xlink:href="#aQ"/><use transform="matrix(0.07469135802469135,0,0,0.07469135802469135,29.801851851851843,0)" xlink:href="#bb"/><use transform="matrix(0.07469135802469135,0,0,0.07469135802469135,44.740123456790116,0)" xlink:href="#bd"/><use transform="matrix(0.07469135802469135,0,0,0.07469135802469135,59.678395061728374,0)" xlink:href="#aC"/></g><path fill="#333" d="M137 0h-34L2-248h35l83 218 83-218h36" id="bs"/><g id="S"><use transform="matrix(0.07469135802469135,0,0,0.07469135802469135,0,0)" xlink:href="#bs"/><use transform="matrix(0.07469135802469135,0,0,0.07469135802469135,17.403086419753084,0)" xlink:href="#aX"/><use transform="matrix(0.07469135802469135,0,0,0.07469135802469135,23.3037037037037,0)" xlink:href="#aF"/><use transform="matrix(0.07469135802469135,0,0,0.07469135802469135,38.24197530864197,0)" xlink:href="#aC"/><use transform="matrix(0.07469135802469135,0,0,0.07469135802469135,53.18024691358024,0)" xlink:href="#aN"/></g><g id="T"><use transform="matrix(0.07469135802469135,0,0,0.07469135802469135,0,0)" xlink:href="#aS"/><use transform="matrix(0.07469135802469135,0,0,0.07469135802469135,17.925925925925924,0)" xlink:href="#aT"/><use transform="matrix(0.07469135802469135,0,0,0.07469135802469135,32.266666666666666,0)" xlink:href="#bh"/><use transform="matrix(0.07469135802469135,0,0,0.07469135802469135,48.175925925925924,0)" xlink:href="#aT"/><use transform="matrix(0.07469135802469135,0,0,0.07469135802469135,64.53333333333333,0)" xlink:href="#aA"/><use transform="matrix(0.07469135802469135,0,0,0.07469135802469135,83.87839506172838,0)" xlink:href="#aS"/></g><g id="U"><use transform="matrix(0.07469135802469135,0,0,0.07469135802469135,0,0)" xlink:href="#aS"/><use transform="matrix(0.07469135802469135,0,0,0.07469135802469135,17.925925925925924,0)" xlink:href="#bn"/><use transform="matrix(0.07469135802469135,0,0,0.07469135802469135,35.85185185185185,0)" xlink:href="#aJ"/><use transform="matrix(0.07469135802469135,0,0,0.07469135802469135,55.19691358024691,0)" xlink:href="#aT"/></g><g id="V"><use transform="matrix(0.07469135802469135,0,0,0.07469135802469135,0,0)" xlink:href="#aZ"/><use transform="matrix(0.07469135802469135,0,0,0.07469135802469135,19.34506172839506,0)" xlink:href="#bn"/><use transform="matrix(0.07469135802469135,0,0,0.07469135802469135,37.27098765432098,0)" xlink:href="#aH"/><use transform="matrix(0.07469135802469135,0,0,0.07469135802469135,52.20925925925926,0)" xlink:href="#aE"/><use transform="matrix(0.07469135802469135,0,0,0.07469135802469135,59.67839506172839,0)" xlink:href="#bs"/><use transform="matrix(0.07469135802469135,0,0,0.07469135802469135,77.60432098765432,0)" xlink:href="#bn"/><use transform="matrix(0.07469135802469135,0,0,0.07469135802469135,95.53024691358024,0)" xlink:href="#aU"/><use transform="matrix(0.07469135802469135,0,0,0.07469135802469135,114.8753086419753,0)" xlink:href="#bn"/><use transform="matrix(0.07469135802469135,0,0,0.07469135802469135,132.80123456790122,0)" xlink:href="#aZ"/></g><g id="W"><use transform="matrix(0.07469135802469135,0,0,0.07469135802469135,0,0)" xlink:href="#aU"/><use transform="matrix(0.07469135802469135,0,0,0.07469135802469135,19.34506172839506,0)" xlink:href="#bn"/><use transform="matrix(0.07469135802469135,0,0,0.07469135802469135,37.27098765432098,0)" xlink:href="#bh"/><use transform="matrix(0.07469135802469135,0,0,0.07469135802469135,55.19691358024691,0)" xlink:href="#aZ"/></g><path fill="#333" d="M141 0L90-78 38 0H4l68-98-65-92h35l48 74 47-74h35l-64 92 68 98h-35" id="bt"/><g id="X"><use transform="matrix(0.07469135802469135,0,0,0.07469135802469135,0,0)" xlink:href="#aL"/><use transform="matrix(0.07469135802469135,0,0,0.07469135802469135,17.925925925925924,0)" xlink:href="#bc"/><use transform="matrix(0.07469135802469135,0,0,0.07469135802469135,23.82654320987654,0)" xlink:href="#bb"/><use transform="matrix(0.07469135802469135,0,0,0.07469135802469135,38.764814814814805,0)" xlink:href="#aX"/><use transform="matrix(0.07469135802469135,0,0,0.07469135802469135,44.66543209876542,0)" xlink:href="#aO"/><use transform="matrix(0.07469135802469135,0,0,0.07469135802469135,59.6037037037037,0)" xlink:href="#aT"/><use transform="matrix(0.07469135802469135,0,0,0.07469135802469135,72.97345679012345,0)" xlink:href="#aC"/><use transform="matrix(0.07469135802469135,0,0,0.07469135802469135,87.91172839506171,0)" xlink:href="#bt"/><use transform="matrix(0.07469135802469135,0,0,0.07469135802469135,101.35617283950616,0)" xlink:href="#ba"/></g><path d="M27 0v-27h64v-190l-56 39v-29l58-41h29v221h61V0H27" id="bu"/><use transform="matrix(0.07469135802469135,0,0,0.07469135802469135,0,0)" xlink:href="#bu" id="Y"/><g id="Z"><use transform="matrix(0.08703703703703701,0,0,0.08703703703703701,0,0)" xlink:href="#aA"/><use transform="matrix(0.08703703703703701,0,0,0.08703703703703701,22.542592592592584,0)" xlink:href="#aB"/><use transform="matrix(0.08703703703703701,0,0,0.08703703703703701,38.20925925925925,0)" xlink:href="#aC"/><use transform="matrix(0.08703703703703701,0,0,0.08703703703703701,55.61666666666665,0)" xlink:href="#aD"/></g><g id="aa"><use transform="matrix(0.08703703703703701,0,0,0.08703703703703701,0,0)" xlink:href="#bm"/><use transform="matrix(0.08703703703703701,0,0,0.08703703703703701,26.024074074074065,0)" xlink:href="#aC"/><use transform="matrix(0.08703703703703701,0,0,0.08703703703703701,43.43148148148147,0)" xlink:href="#aB"/><use transform="matrix(0.08703703703703701,0,0,0.08703703703703701,59.09814814814813,0)" xlink:href="#aB"/><use transform="matrix(0.08703703703703701,0,0,0.08703703703703701,74.7648148148148,0)" xlink:href="#bb"/><use transform="matrix(0.08703703703703701,0,0,0.08703703703703701,92.17222222222219,0)" xlink:href="#bd"/><use transform="matrix(0.08703703703703701,0,0,0.08703703703703701,109.57962962962962,0)" xlink:href="#aC"/></g><path fill="#333" d="M27 0v-27h64v-190l-56 39v-29l58-41h29v221h61V0H27" id="bv"/><use transform="matrix(0.08703703703703701,0,0,0.08703703703703701,0,0)" xlink:href="#bv" id="ab"/><use transform="matrix(0.08703703703703701,0,0,0.08703703703703701,0,0)" xlink:href="#aJ" id="ac"/><g id="ad"><use transform="matrix(0.08086419753086417,0,0,0.08086419753086417,0,0)" xlink:href="#aK"/><use transform="matrix(0.08086419753086417,0,0,0.08086419753086417,22.641975308641968,0)" xlink:href="#aD"/><use transform="matrix(0.08086419753086417,0,0,0.08086419753086417,32.264814814814805,0)" xlink:href="#aN"/><use transform="matrix(0.08086419753086417,0,0,0.08086419753086417,48.43765432098764,0)" xlink:href="#aP"/><use transform="matrix(0.08086419753086417,0,0,0.08086419753086417,64.61049382716047,0)" xlink:href="#aV"/></g><g id="ae"><use transform="matrix(0.08086419753086417,0,0,0.08086419753086417,0,0)" xlink:href="#aS"/><use transform="matrix(0.08086419753086417,0,0,0.08086419753086417,19.4074074074074,0)" xlink:href="#aV"/><use transform="matrix(0.08086419753086417,0,0,0.08086419753086417,35.58024691358024,0)" xlink:href="#aC"/><use transform="matrix(0.08086419753086417,0,0,0.08086419753086417,51.75308641975308,0)" xlink:href="#aW"/><use transform="matrix(0.08086419753086417,0,0,0.08086419753086417,66.30864197530863,0)" xlink:href="#aX"/><use transform="matrix(0.08086419753086417,0,0,0.08086419753086417,72.6969135802469,0)" xlink:href="#aY"/><use transform="matrix(0.08086419753086417,0,0,0.08086419753086417,80.78333333333332,0)" xlink:href="#aX"/><use transform="matrix(0.08086419753086417,0,0,0.08086419753086417,87.17160493827157,0)" xlink:href="#aW"/><use transform="matrix(0.08086419753086417,0,0,0.08086419753086417,101.72716049382714,0)" xlink:href="#aB"/></g><g id="af"><use transform="matrix(0.08086419753086417,0,0,0.08086419753086417,0,0)" xlink:href="#aA"/><use transform="matrix(0.08086419753086417,0,0,0.08086419753086417,20.94382716049382,0)" xlink:href="#aB"/><use transform="matrix(0.08086419753086417,0,0,0.08086419753086417,35.49938271604937,0)" xlink:href="#aC"/><use transform="matrix(0.08086419753086417,0,0,0.08086419753086417,51.6722222222222,0)" xlink:href="#aD"/><use transform="matrix(0.08086419753086417,0,0,0.08086419753086417,61.29506172839504,0)" xlink:href="#aB"/></g><g id="ag"><use transform="matrix(0.08086419753086417,0,0,0.08086419753086417,0,0)" xlink:href="#aH"/><use transform="matrix(0.08086419753086417,0,0,0.08086419753086417,16.172839506172835,0)" xlink:href="#aX"/><use transform="matrix(0.08086419753086417,0,0,0.08086419753086417,22.561111111111103,0)" xlink:href="#aB"/><use transform="matrix(0.08086419753086417,0,0,0.08086419753086417,37.11666666666665,0)" xlink:href="#ba"/><use transform="matrix(0.08086419753086417,0,0,0.08086419753086417,45.20308641975307,0)" xlink:href="#bp"/><use transform="matrix(0.08086419753086417,0,0,0.08086419753086417,62.184567901234544,0)" xlink:href="#aA"/><use transform="matrix(0.08086419753086417,0,0,0.08086419753086417,83.12839506172837,0)" xlink:href="#aB"/><use transform="matrix(0.08086419753086417,0,0,0.08086419753086417,97.68395061728391,0)" xlink:href="#aC"/><use transform="matrix(0.08086419753086417,0,0,0.08086419753086417,113.85679012345675,0)" xlink:href="#aD"/><use transform="matrix(0.08086419753086417,0,0,0.08086419753086417,123.47962962962961,0)" xlink:href="#bq"/></g><g id="ai"><use transform="matrix(0.09320987654320984,0,0,0.09320987654320984,0,0)" xlink:href="#aZ"/><use transform="matrix(0.09320987654320984,0,0,0.09320987654320984,24.141358024691346,0)" xlink:href="#aC"/><use transform="matrix(0.09320987654320984,0,0,0.09320987654320984,42.78333333333332,0)" xlink:href="#bc"/><use transform="matrix(0.09320987654320984,0,0,0.09320987654320984,50.14691358024689,0)" xlink:href="#aC"/><use transform="matrix(0.09320987654320984,0,0,0.09320987654320984,68.78888888888886,0)" xlink:href="#ba"/><use transform="matrix(0.09320987654320984,0,0,0.09320987654320984,78.10987654320985,0)" xlink:href="#aC"/><use transform="matrix(0.09320987654320984,0,0,0.09320987654320984,96.75185185185182,0)" xlink:href="#aK"/><use transform="matrix(0.09320987654320984,0,0,0.09320987654320984,122.85061728395058,0)" xlink:href="#aD"/><use transform="matrix(0.09320987654320984,0,0,0.09320987654320984,133.94259259259255,0)" xlink:href="#aN"/><use transform="matrix(0.09320987654320984,0,0,0.09320987654320984,152.58456790123452,0)" xlink:href="#aP"/><use transform="matrix(0.09320987654320984,0,0,0.09320987654320984,171.2265432098765,0)" xlink:href="#aV"/><use transform="matrix(0.09320987654320984,0,0,0.09320987654320984,189.86851851851847,0)" xlink:href="#be"/><use transform="matrix(0.09320987654320984,0,0,0.09320987654320984,200.96049382716043,0)" xlink:href="#bf"/></g><g id="aj"><use transform="matrix(0.09320987654320984,0,0,0.09320987654320984,0,0)" xlink:href="#bg"/><use transform="matrix(0.09320987654320984,0,0,0.09320987654320984,24.141358024691346,0)" xlink:href="#aD"/><use transform="matrix(0.09320987654320984,0,0,0.09320987654320984,35.23333333333332,0)" xlink:href="#aC"/><use transform="matrix(0.09320987654320984,0,0,0.09320987654320984,53.87530864197529,0)" xlink:href="#bb"/><use transform="matrix(0.09320987654320984,0,0,0.09320987654320984,72.51728395061726,0)" xlink:href="#ba"/><use transform="matrix(0.09320987654320984,0,0,0.09320987654320984,81.83827160493824,0)" xlink:href="#aC"/><use transform="matrix(0.09320987654320984,0,0,0.09320987654320984,100.4802469135802,0)" xlink:href="#aK"/><use transform="matrix(0.09320987654320984,0,0,0.09320987654320984,126.57901234567896,0)" xlink:href="#aD"/><use transform="matrix(0.09320987654320984,0,0,0.09320987654320984,137.67098765432092,0)" xlink:href="#aN"/><use transform="matrix(0.09320987654320984,0,0,0.09320987654320984,156.3129629629629,0)" xlink:href="#aP"/><use transform="matrix(0.09320987654320984,0,0,0.09320987654320984,174.95493827160487,0)" xlink:href="#aV"/><use transform="matrix(0.09320987654320984,0,0,0.09320987654320984,193.59691358024682,0)" xlink:href="#be"/><use transform="matrix(0.09320987654320984,0,0,0.09320987654320984,204.6888888888888,0)" xlink:href="#bf"/></g><g id="ak"><use transform="matrix(0.09320987654320984,0,0,0.09320987654320984,0,0)" xlink:href="#bh"/><use transform="matrix(0.09320987654320984,0,0,0.09320987654320984,22.37037037037036,0)" xlink:href="#aF"/><use transform="matrix(0.09320987654320984,0,0,0.09320987654320984,41.01234567901233,0)" xlink:href="#aF"/><use transform="matrix(0.09320987654320984,0,0,0.09320987654320984,59.654320987654295,0)" xlink:href="#aA"/><use transform="matrix(0.09320987654320984,0,0,0.09320987654320984,83.79567901234564,0)" xlink:href="#aB"/><use transform="matrix(0.09320987654320984,0,0,0.09320987654320984,100.57345679012342,0)" xlink:href="#aC"/><use transform="matrix(0.09320987654320984,0,0,0.09320987654320984,119.21543209876538,0)" xlink:href="#aD"/><use transform="matrix(0.09320987654320984,0,0,0.09320987654320984,130.30740740740734,0)" xlink:href="#be"/><use transform="matrix(0.09320987654320984,0,0,0.09320987654320984,141.3993827160493,0)" xlink:href="#bf"/></g><g id="al"><use transform="matrix(0.09320987654320984,0,0,0.09320987654320984,0,0)" xlink:href="#aU"/><use transform="matrix(0.09320987654320984,0,0,0.09320987654320984,24.141358024691346,0)" xlink:href="#aC"/><use transform="matrix(0.09320987654320984,0,0,0.09320987654320984,42.78333333333332,0)" xlink:href="#aQ"/><use transform="matrix(0.09320987654320984,0,0,0.09320987654320984,70.65308641975307,0)" xlink:href="#aN"/><use transform="matrix(0.09320987654320984,0,0,0.09320987654320984,89.29506172839504,0)" xlink:href="#bo"/><use transform="matrix(0.09320987654320984,0,0,0.09320987654320984,106.07283950617281,0)" xlink:href="#aC"/><use transform="matrix(0.09320987654320984,0,0,0.09320987654320984,124.71481481481479,0)" xlink:href="#aA"/><use transform="matrix(0.09320987654320984,0,0,0.09320987654320984,148.85617283950614,0)" xlink:href="#aB"/><use transform="matrix(0.09320987654320984,0,0,0.09320987654320984,165.63395061728392,0)" xlink:href="#aC"/><use transform="matrix(0.09320987654320984,0,0,0.09320987654320984,184.2759259259259,0)" xlink:href="#aD"/><use transform="matrix(0.09320987654320984,0,0,0.09320987654320984,195.36790123456785,0)" xlink:href="#be"/><use transform="matrix(0.09320987654320984,0,0,0.09320987654320984,206.45987654320982,0)" xlink:href="#bf"/></g><g id="am"><use transform="matrix(0.08086419753086416,0,0,0.08086419753086416,0,0)" xlink:href="#aZ"/><use transform="matrix(0.08086419753086416,0,0,0.08086419753086416,20.943827160493818,0)" xlink:href="#aC"/><use transform="matrix(0.08086419753086416,0,0,0.08086419753086416,37.116666666666646,0)" xlink:href="#ba"/><use transform="matrix(0.08086419753086416,0,0,0.08086419753086416,45.20308641975306,0)" xlink:href="#bb"/><use transform="matrix(0.08086419753086416,0,0,0.08086419753086416,61.3759259259259,0)" xlink:href="#aX"/><use transform="matrix(0.08086419753086416,0,0,0.08086419753086416,67.76419753086417,0)" xlink:href="#bc"/></g><g id="an"><use transform="matrix(0.08086419753086417,0,0,0.08086419753086417,0,0)" xlink:href="#bh"/><use transform="matrix(0.08086419753086417,0,0,0.08086419753086417,19.4074074074074,0)" xlink:href="#aR"/><use transform="matrix(0.08086419753086417,0,0,0.08086419753086417,35.58024691358024,0)" xlink:href="#aN"/><use transform="matrix(0.08086419753086417,0,0,0.08086419753086417,51.75308641975308,0)" xlink:href="#aP"/><use transform="matrix(0.08086419753086417,0,0,0.08086419753086417,67.92592592592591,0)" xlink:href="#ba"/></g><g id="ao"><use transform="matrix(0.08086419753086417,0,0,0.08086419753086417,0,0)" xlink:href="#aL"/><use transform="matrix(0.08086419753086417,0,0,0.08086419753086417,19.4074074074074,0)" xlink:href="#aD"/><use transform="matrix(0.08086419753086417,0,0,0.08086419753086417,29.03024691358024,0)" xlink:href="#aN"/><use transform="matrix(0.08086419753086417,0,0,0.08086419753086417,45.20308641975307,0)" xlink:href="#aY"/><use transform="matrix(0.08086419753086417,0,0,0.08086419753086417,53.28950617283949,0)" xlink:href="#aX"/><use transform="matrix(0.08086419753086417,0,0,0.08086419753086417,59.677777777777756,0)" xlink:href="#bc"/><use transform="matrix(0.08086419753086417,0,0,0.08086419753086417,66.06604938271603,0)" xlink:href="#aC"/></g><use transform="matrix(0.08086419753086417,0,0,0.08086419753086417,0,0)" xlink:href="#aG" id="ap"/><g id="aq"><use transform="matrix(0.08086419753086417,0,0,0.08086419753086417,0,0)" xlink:href="#aE"/><use transform="matrix(0.08086419753086417,0,0,0.08086419753086417,8.086419753086417,0)" xlink:href="#bm"/><use transform="matrix(0.08086419753086417,0,0,0.08086419753086417,32.264814814814805,0)" xlink:href="#bh"/><use transform="matrix(0.08086419753086417,0,0,0.08086419753086417,51.6722222222222,0)" xlink:href="#aK"/><use transform="matrix(0.08086419753086417,0,0,0.08086419753086417,74.31419753086416,0)" xlink:href="#bn"/></g><g id="ar"><use transform="matrix(0.08086419753086417,0,0,0.08086419753086417,0,0)" xlink:href="#aJ"/><use transform="matrix(0.08086419753086417,0,0,0.08086419753086417,20.94382716049382,0)" xlink:href="#bb"/><use transform="matrix(0.08086419753086417,0,0,0.08086419753086417,37.11666666666666,0)" xlink:href="#aQ"/><use transform="matrix(0.08086419753086417,0,0,0.08086419753086417,61.29506172839505,0)" xlink:href="#aC"/></g><g id="as"><use transform="matrix(0.08086419753086417,0,0,0.08086419753086417,0,0)" xlink:href="#bg"/><use transform="matrix(0.08086419753086417,0,0,0.08086419753086417,20.94382716049382,0)" xlink:href="#aD"/><use transform="matrix(0.08086419753086417,0,0,0.08086419753086417,30.566666666666656,0)" xlink:href="#aC"/><use transform="matrix(0.08086419753086417,0,0,0.08086419753086417,46.73950617283949,0)" xlink:href="#bb"/><use transform="matrix(0.08086419753086417,0,0,0.08086419753086417,62.912345679012326,0)" xlink:href="#ba"/><use transform="matrix(0.08086419753086417,0,0,0.08086419753086417,70.99876543209874,0)" xlink:href="#aX"/><use transform="matrix(0.08086419753086417,0,0,0.08086419753086417,77.387037037037,0)" xlink:href="#aN"/><use transform="matrix(0.08086419753086417,0,0,0.08086419753086417,93.55987654320984,0)" xlink:href="#aO"/><use transform="matrix(0.08086419753086417,0,0,0.08086419753086417,109.73271604938267,0)" xlink:href="#aZ"/><use transform="matrix(0.08086419753086417,0,0,0.08086419753086417,130.67654320987648,0)" xlink:href="#bb"/><use transform="matrix(0.08086419753086417,0,0,0.08086419753086417,146.84938271604932,0)" xlink:href="#ba"/><use transform="matrix(0.08086419753086417,0,0,0.08086419753086417,154.93580246913575,0)" xlink:href="#aC"/><use transform="matrix(0.08086419753086417,0,0,0.08086419753086417,171.1086419753086,0)" xlink:href="#aG"/><use transform="matrix(0.08086419753086417,0,0,0.08086419753086417,179.195061728395,0)" xlink:href="#aZ"/><use transform="matrix(0.08086419753086417,0,0,0.08086419753086417,200.13888888888877,0)" xlink:href="#bh"/><use transform="matrix(0.08086419753086417,0,0,0.08086419753086417,217.36296296296285,0)" xlink:href="#aT"/><use transform="matrix(0.08086419753086417,0,0,0.08086419753086417,235.0722222222221,0)" xlink:href="#bn"/><use transform="matrix(0.08086419753086417,0,0,0.08086419753086417,254.4796296296295,0)" xlink:href="#aT"/><use transform="matrix(0.08086419753086417,0,0,0.08086419753086417,272.18888888888875,0)" xlink:href="#aE"/><use transform="matrix(0.08086419753086417,0,0,0.08086419753086417,280.2753086419752,0)" xlink:href="#bm"/><use transform="matrix(0.08086419753086417,0,0,0.08086419753086417,304.4537037037036,0)" xlink:href="#bn"/></g><g id="at"><use transform="matrix(0.08086419753086417,0,0,0.08086419753086417,0,0)" xlink:href="#bd"/><use transform="matrix(0.08086419753086417,0,0,0.08086419753086417,16.172839506172835,0)" xlink:href="#aC"/><use transform="matrix(0.08086419753086417,0,0,0.08086419753086417,32.34567901234567,0)" xlink:href="#ba"/><use transform="matrix(0.08086419753086417,0,0,0.08086419753086417,40.43209876543209,0)" xlink:href="#aZ"/><use transform="matrix(0.08086419753086417,0,0,0.08086419753086417,61.37592592592591,0)" xlink:href="#aC"/><use transform="matrix(0.08086419753086417,0,0,0.08086419753086417,77.54876543209875,0)" xlink:href="#ba"/><use transform="matrix(0.08086419753086417,0,0,0.08086419753086417,85.63518518518515,0)" xlink:href="#bb"/><use transform="matrix(0.08086419753086417,0,0,0.08086419753086417,101.80802469135799,0)" xlink:href="#aX"/><use transform="matrix(0.08086419753086417,0,0,0.08086419753086417,108.19629629629625,0)" xlink:href="#bc"/><use transform="matrix(0.08086419753086417,0,0,0.08086419753086417,114.58456790123454,0)" xlink:href="#be"/><use transform="matrix(0.08086419753086417,0,0,0.08086419753086417,124.20740740740737,0)" xlink:href="#bf"/></g><use transform="matrix(0.08703703703703701,0,0,0.08703703703703701,0,0)" xlink:href="#bu" id="au"/><path d="M190 0L58-211 59 0H30v-248h39L202-35l-2-213h31V0h-41" id="bw"/><use transform="matrix(0.08703703703703701,0,0,0.08703703703703701,0,0)" xlink:href="#bw" id="av"/><g id="aw"><use transform="matrix(0.08703703703703701,0,0,0.08703703703703701,0,0)" xlink:href="#aA"/><use transform="matrix(0.08703703703703701,0,0,0.08703703703703701,22.542592592592584,0)" xlink:href="#aB"/><use transform="matrix(0.08703703703703701,0,0,0.08703703703703701,38.20925925925925,0)" xlink:href="#aC"/><use transform="matrix(0.08703703703703701,0,0,0.08703703703703701,55.61666666666665,0)" xlink:href="#aD"/></g><g id="ay"><use transform="matrix(0.08703703703703701,0,0,0.08703703703703701,0,0)" xlink:href="#aK"/><use transform="matrix(0.08703703703703701,0,0,0.08703703703703701,24.370370370370363,0)" xlink:href="#aD"/><use transform="matrix(0.08703703703703701,0,0,0.08703703703703701,34.72777777777777,0)" xlink:href="#aN"/><use transform="matrix(0.08703703703703701,0,0,0.08703703703703701,52.13518518518517,0)" xlink:href="#aP"/><use transform="matrix(0.08703703703703701,0,0,0.08703703703703701,69.54259259259257,0)" xlink:href="#aV"/></g><g id="az"><use transform="matrix(0.08703703703703701,0,0,0.08703703703703701,0,0)" xlink:href="#aZ"/><use transform="matrix(0.08703703703703701,0,0,0.08703703703703701,22.542592592592584,0)" xlink:href="#aC"/><use transform="matrix(0.08703703703703701,0,0,0.08703703703703701,39.94999999999999,0)" xlink:href="#ba"/><use transform="matrix(0.08703703703703701,0,0,0.08703703703703701,48.65370370370369,0)" xlink:href="#bb"/><use transform="matrix(0.08703703703703701,0,0,0.08703703703703701,66.06111111111109,0)" xlink:href="#aX"/><use transform="matrix(0.08703703703703701,0,0,0.08703703703703701,72.93703703703702,0)" xlink:href="#bc"/></g></defs></g></svg>