<svg xmlns="http://www.w3.org/2000/svg" xmlns:xlink="http://www.w3.org/1999/xlink" xmlns:lucid="lucid" width="4335.33" height="1883.23"><g transform="translate(0 0)" lucid:page-tab-id="HWEp-vi-RSFO"><path d="M40 280h400v841H40z" stroke="#333" stroke-width="2" fill="#fff"/><path d="M40 330.93h400M40 668.03h400" stroke="#333" stroke-width="2" fill="none"/><use xlink:href="#a" transform="matrix(1,0,0,1,48,288) translate(161.3524691358025 23.322222222222223)"/><use xlink:href="#b" transform="matrix(1,0,0,1,52,338.93333333333334) translate(122.54043209876545 79.48888888888891)"/><use xlink:href="#c" transform="matrix(1,0,0,1,52,338.93333333333334) translate(154.88611111111112 79.48888888888891)"/><use xlink:href="#d" transform="matrix(1,0,0,1,52,338.93333333333334) translate(171.05895061728395 79.48888888888891)"/><use xlink:href="#e" transform="matrix(1,0,0,1,52,338.93333333333334) translate(82.27006172839509 114.42222222222222)"/><use xlink:href="#c" transform="matrix(1,0,0,1,52,338.93333333333334) translate(167.8243827160494 114.42222222222222)"/><use xlink:href="#f" transform="matrix(1,0,0,1,52,338.93333333333334) translate(183.9972222222222 114.42222222222222)"/><use xlink:href="#g" transform="matrix(1,0,0,1,52,338.93333333333334) translate(23.27962962962968 149.35555555555555)"/><use xlink:href="#h" transform="matrix(1,0,0,1,52,338.93333333333334) translate(115.46481481481484 149.35555555555555)"/><use xlink:href="#c" transform="matrix(1,0,0,1,52,338.93333333333334) translate(226.8148148148148 149.35555555555555)"/><use xlink:href="#f" transform="matrix(1,0,0,1,52,338.93333333333334) translate(242.98765432098764 149.35555555555555)"/><use xlink:href="#i" transform="matrix(1,0,0,1,52,338.93333333333334) translate(82.99783950617288 184.2888888888889)"/><use xlink:href="#c" transform="matrix(1,0,0,1,52,338.93333333333334) translate(167.09660493827164 184.2888888888889)"/><use xlink:href="#f" transform="matrix(1,0,0,1,52,338.93333333333334) translate(183.26944444444445 184.2888888888889)"/><use xlink:href="#j" transform="matrix(1,0,0,1,52,338.93333333333334) translate(83.84691358024695 219.2222222222222)"/><use xlink:href="#k" transform="matrix(1,0,0,1,52,338.93333333333334) translate(174.17222222222222 219.2222222222222)"/><use xlink:href="#l" transform="matrix(1,0,0,1,52,338.93333333333334) translate(198.43148148148148 219.2222222222222)"/><use xlink:href="#m" transform="matrix(1,0,0,1,52,338.93333333333334) translate(14.263271604938325 254.15555555555554)"/><use xlink:href="#n" transform="matrix(1,0,0,1,52,338.93333333333334) translate(227.583024691358 254.15555555555554)"/><use xlink:href="#o" transform="matrix(1,0,0,1,52,676.0333333333333) translate(122.00740740740744 82.81111111111116)"/><use xlink:href="#p" transform="matrix(1,0,0,1,52,676.0333333333333) translate(129.41759259259263 123.07777777777781)"/><use xlink:href="#q" transform="matrix(1,0,0,1,52,676.0333333333333) translate(114.50401234567904 163.34444444444446)"/><use xlink:href="#r" transform="matrix(1,0,0,1,52,676.0333333333333) translate(67.94567901234572 203.61111111111111)"/><use xlink:href="#s" transform="matrix(1,0,0,1,52,676.0333333333333) translate(97.8194444444445 243.87777777777777)"/><use xlink:href="#t" transform="matrix(1,0,0,1,52,676.0333333333333) translate(76.47438271604943 284.1444444444444)"/><use xlink:href="#u" transform="matrix(1,0,0,1,52,676.0333333333333) translate(96.84074074074077 324.41111111111104)"/><use xlink:href="#v" transform="matrix(1,0,0,1,52,676.0333333333333) translate(188 352.23333333333323)"/><use xlink:href="#w" transform="matrix(1,0,0,1,52,676.0333333333333) translate(188 373.83333333333326)"/><path d="M820 600h360v700H820z" stroke="#333" stroke-width="2" fill="#fff"/><path d="M820 650.93h360m-360 369.1h360" stroke="#333" stroke-width="2" fill="none"/><use xlink:href="#x" transform="matrix(1,0,0,1,828,608) translate(72.65833333333337 23.322222222222223)"/><use xlink:href="#y" transform="matrix(1,0,0,1,832,658.9333333333333) translate(40.355864197530906 95.48888888888891)"/><use xlink:href="#z" transform="matrix(1,0,0,1,832,658.9333333333333) translate(166.42314814814813 95.48888888888891)"/><use xlink:href="#c" transform="matrix(1,0,0,1,832,658.9333333333333) translate(197.07067901234566 95.48888888888891)"/><use xlink:href="#d" transform="matrix(1,0,0,1,832,658.9333333333333) translate(213.2435185185185 95.48888888888891)"/><use xlink:href="#A" transform="matrix(1,0,0,1,832,658.9333333333333) translate(30.773456790123475 130.42222222222222)"/><use xlink:href="#c" transform="matrix(1,0,0,1,832,658.9333333333333) translate(140.6679012345679 130.42222222222222)"/><use xlink:href="#B" transform="matrix(1,0,0,1,832,658.9333333333333) translate(156.84074074074073 130.42222222222222)"/><use xlink:href="#C" transform="matrix(1,0,0,1,832,658.9333333333333) translate(52.485493827160525 165.35555555555555)"/><use xlink:href="#z" transform="matrix(1,0,0,1,832,658.9333333333333) translate(154.2935185185185 165.35555555555555)"/><use xlink:href="#c" transform="matrix(1,0,0,1,832,658.9333333333333) translate(184.94104938271605 165.35555555555555)"/><use xlink:href="#d" transform="matrix(1,0,0,1,832,658.9333333333333) translate(201.11388888888888 165.35555555555555)"/><use xlink:href="#D" transform="matrix(1,0,0,1,832,658.9333333333333) translate(41.20493827160497 200.2888888888889)"/><use xlink:href="#E" transform="matrix(1,0,0,1,832,658.9333333333333) translate(163.8759259259259 200.2888888888889)"/><use xlink:href="#c" transform="matrix(1,0,0,1,832,658.9333333333333) translate(196.22160493827158 200.2888888888889)"/><use xlink:href="#d" transform="matrix(1,0,0,1,832,658.9333333333333) translate(212.39444444444445 200.2888888888889)"/><use xlink:href="#F" transform="matrix(1,0,0,1,832,658.9333333333333) translate(13.872839506172852 235.2222222222222)"/><use xlink:href="#G" transform="matrix(1,0,0,1,832,658.9333333333333) translate(177.4611111111111 235.2222222222222)"/><use xlink:href="#H" transform="matrix(1,0,0,1,832,658.9333333333333) translate(59.52067901234571 270.1555555555555)"/><use xlink:href="#c" transform="matrix(1,0,0,1,832,658.9333333333333) translate(150.08858024691358 270.1555555555555)"/><use xlink:href="#I" transform="matrix(1,0,0,1,832,658.9333333333333) translate(166.26141975308644 270.1555555555555)"/><use xlink:href="#J" transform="matrix(1,0,0,1,832,1028.0333333333333) translate(49.76327160493831 98.94444444444446)"/><use xlink:href="#K" transform="matrix(1,0,0,1,832,1028.0333333333333) translate(28.418209876543273 139.2111111111111)"/><use xlink:href="#L" transform="matrix(1,0,0,1,832,1028.0333333333333) translate(41.374382716049425 179.47777777777776)"/><path d="M900 60h360v318H900z" stroke="#333" stroke-width="2" fill="#fff"/><path d="M900 140.53h360" stroke="#333" stroke-width="2" fill="none"/><use xlink:href="#M" transform="matrix(1,0,0,1,908,68) translate(70.45709876543211 21.744444444444447)"/><use xlink:href="#N" transform="matrix(1,0,0,1,908,68) translate(119.75339506172841 54.011111111111106)"/><use xlink:href="#J" transform="matrix(1,0,0,1,912,148.5333333333333) translate(49.76327160493831 77.44444444444446)"/><use xlink:href="#K" transform="matrix(1,0,0,1,912,148.5333333333333) translate(28.418209876543273 117.71111111111111)"/><use xlink:href="#L" transform="matrix(1,0,0,1,912,148.5333333333333) translate(41.374382716049425 157.97777777777776)"/><path d="M1400 600h360v700h-360z" stroke="#333" stroke-width="2" fill="#fff"/><path d="M1400 650.93h360m-360 369.1h360" stroke="#333" stroke-width="2" fill="none"/><use xlink:href="#O" transform="matrix(1,0,0,1,1408,608) translate(72.61790123456794 23.322222222222223)"/><use xlink:href="#y" transform="matrix(1,0,0,1,1412,658.9333333333333) translate(40.355864197530906 95.48888888888891)"/><use xlink:href="#z" transform="matrix(1,0,0,1,1412,658.9333333333333) translate(166.42314814814813 95.48888888888891)"/><use xlink:href="#c" transform="matrix(1,0,0,1,1412,658.9333333333333) translate(197.07067901234566 95.48888888888891)"/><use xlink:href="#d" transform="matrix(1,0,0,1,1412,658.9333333333333) translate(213.2435185185185 95.48888888888891)"/><use xlink:href="#A" transform="matrix(1,0,0,1,1412,658.9333333333333) translate(30.773456790123475 130.42222222222222)"/><use xlink:href="#c" transform="matrix(1,0,0,1,1412,658.9333333333333) translate(140.6679012345679 130.42222222222222)"/><use xlink:href="#B" transform="matrix(1,0,0,1,1412,658.9333333333333) translate(156.84074074074073 130.42222222222222)"/><use xlink:href="#C" transform="matrix(1,0,0,1,1412,658.9333333333333) translate(52.485493827160525 165.35555555555555)"/><use xlink:href="#z" transform="matrix(1,0,0,1,1412,658.9333333333333) translate(154.2935185185185 165.35555555555555)"/><use xlink:href="#c" transform="matrix(1,0,0,1,1412,658.9333333333333) translate(184.94104938271605 165.35555555555555)"/><use xlink:href="#d" transform="matrix(1,0,0,1,1412,658.9333333333333) translate(201.11388888888888 165.35555555555555)"/><use xlink:href="#P" transform="matrix(1,0,0,1,1412,658.9333333333333) translate(1.621913580246968 200.2888888888889)"/><use xlink:href="#Q" transform="matrix(1,0,0,1,1412,658.9333333333333) translate(186.47746913580247 200.2888888888889)"/><use xlink:href="#c" transform="matrix(1,0,0,1,1412,658.9333333333333) translate(235.8046296296296 200.2888888888889)"/><use xlink:href="#d" transform="matrix(1,0,0,1,1412,658.9333333333333) translate(251.97746913580244 200.2888888888889)"/><use xlink:href="#F" transform="matrix(1,0,0,1,1412,658.9333333333333) translate(13.872839506172852 235.2222222222222)"/><use xlink:href="#G" transform="matrix(1,0,0,1,1412,658.9333333333333) translate(177.4611111111111 235.2222222222222)"/><use xlink:href="#H" transform="matrix(1,0,0,1,1412,658.9333333333333) translate(59.52067901234571 270.1555555555555)"/><use xlink:href="#c" transform="matrix(1,0,0,1,1412,658.9333333333333) translate(150.08858024691358 270.1555555555555)"/><use xlink:href="#I" transform="matrix(1,0,0,1,1412,658.9333333333333) translate(166.26141975308644 270.1555555555555)"/><g><use xlink:href="#J" transform="matrix(1,0,0,1,1412,1028.0333333333333) translate(49.76327160493831 98.94444444444446)"/><use xlink:href="#K" transform="matrix(1,0,0,1,1412,1028.0333333333333) translate(28.418209876543273 139.2111111111111)"/><use xlink:href="#L" transform="matrix(1,0,0,1,1412,1028.0333333333333) translate(41.374382716049425 179.47777777777776)"/></g><path d="M2053 60h360v230h-360z" stroke="#333" stroke-width="2" fill="#fff"/><path d="M2053 140.53h360" stroke="#333" stroke-width="2" fill="none"/><g><use xlink:href="#R" transform="matrix(1,0,0,1,2061.011614266431,68) translate(72.10030864197532 21.744444444444447)"/><use xlink:href="#S" transform="matrix(1,0,0,1,2061.011614266431,68) translate(119.75339506172841 54.011111111111106)"/></g><g><use xlink:href="#T" transform="matrix(1,0,0,1,2065.011614266431,148.5333333333333) translate(93.4206790123457 72.37777777777778)"/></g><path d="M2340 460h360v188h-360z" stroke="#333" stroke-width="2" fill="#fff"/><path d="M2340 508.27h360m-360 69.76h360" stroke="#333" stroke-width="2" fill="none"/><g><use xlink:href="#U" transform="matrix(1,0,0,1,2348,468) translate(124.30956790123457 21.877777777777776)"/></g><g><use xlink:href="#T" transform="matrix(1,0,0,1,2352,586.0333333333333) translate(93.4206790123457 32.37777777777778)"/></g><path d="M2140 728h360v188h-360z" stroke="#333" stroke-width="2" fill="#fff"/><path d="M2140 776.27h360m-360 69.76h360" stroke="#333" stroke-width="2" fill="none"/><g><use xlink:href="#V" transform="matrix(1,0,0,1,2148,736) translate(134.69166666666666 21.877777777777776)"/></g><g><use xlink:href="#T" transform="matrix(1,0,0,1,2152,854.0333333333333) translate(93.4206790123457 32.37777777777778)"/></g><path d="M2740 460h360v188h-360z" stroke="#333" stroke-width="2" fill="#fff"/><path d="M2740 508.27h360m-360 69.76h360" stroke="#333" stroke-width="2" fill="none"/><g><use xlink:href="#W" transform="matrix(1,0,0,1,2748,468) translate(137.94074074074075 21.877777777777776)"/></g><g><use xlink:href="#T" transform="matrix(1,0,0,1,2752,586.0333333333333) translate(93.4206790123457 32.37777777777778)"/></g><path d="M2140 1020h360v262h-360z" stroke="#333" stroke-width="2" fill="#fff"/><path d="M2140 1068.27h360" stroke="#333" stroke-width="2" fill="none"/><g><use xlink:href="#X" transform="matrix(1,0,0,1,2148,1028) translate(121.09783950617285 21.877777777777776)"/></g><g><use xlink:href="#Y" transform="matrix(1,0,0,1,2152,1076.2666666666667) translate(84.45771604938273 72.11111111111111)"/><use xlink:href="#Z" transform="matrix(1,0,0,1,2152,1076.2666666666667) translate(190.44475308641972 72.11111111111111)"/><use xlink:href="#aa" transform="matrix(1,0,0,1,2152,1076.2666666666667) translate(78.51975308641977 104.37777777777778)"/><use xlink:href="#Z" transform="matrix(1,0,0,1,2152,1076.2666666666667) translate(196.38271604938274 104.37777777777778)"/><use xlink:href="#aa" transform="matrix(1,0,0,1,2152,1076.2666666666667) translate(39.71759259259261 136.64444444444445)"/><use xlink:href="#ab" transform="matrix(1,0,0,1,2152,1076.2666666666667) translate(157.58055555555558 136.64444444444445)"/><use xlink:href="#ac" transform="matrix(1,0,0,1,2152,1076.2666666666667) translate(235.1848765432099 136.64444444444445)"/></g><path d="M2520 458.5V387a12 12 0 0 0-12-12h-263a12 12 0 0 1-12-12v-55.62" stroke="#333" fill="none"/><path d="M2520.5 459h-1v-.5h1z" stroke="#333" stroke-width=".05" fill="#333"/><path d="M2233 292.62l4.65 14.26h-9.27z" stroke="#333" fill="#333"/><path d="M1920 460h360v188h-360z" stroke="#333" stroke-width="2" fill="#fff"/><path d="M1920 508.27h360m-360 69.76h360" stroke="#333" stroke-width="2" fill="none"/><g><use xlink:href="#ad" transform="matrix(1,0,0,1,1928,468) translate(117.58734567901234 21.877777777777776)"/></g><g><use xlink:href="#T" transform="matrix(1,0,0,1,1932,586.0333333333333) translate(93.4206790123457 32.37777777777778)"/></g><path d="M2100 458.5V387a12 12 0 0 1 12-12h53.82a12 12 0 0 0 12-12v-55.62" stroke="#333" fill="none"/><path d="M2100.5 459h-1v-.5h1z" stroke="#333" stroke-width=".05" fill="#333"/><path d="M2177.82 292.62l4.63 14.26h-9.27z" stroke="#333" fill="#333"/><path d="M2320 726.5V307.38" stroke="#333" fill="none"/><path d="M2320.5 727h-1v-.5h1z" stroke="#333" stroke-width=".05" fill="#333"/><path d="M2320 292.62l4.64 14.26h-9.28z" stroke="#333" fill="#333"/><path d="M2920 458.5V372a12 12 0 0 0-12-12h-607.02a12 12 0 0 1-12-12v-40.62" stroke="#333" fill="none"/><path d="M2920.5 459h-1v-.5h1z" stroke="#333" stroke-width=".05" fill="#333"/><path d="M2288.98 292.62l4.63 14.26h-9.26z" stroke="#333" fill="#333"/><path d="M1000 598.5V571a12 12 0 0 0-12-12H871a12 12 0 0 1-12-12V231a12 12 0 0 1 12-12h11.62" stroke="#333" fill="none"/><path d="M1000.5 599h-1v-.5h1z" stroke="#333" stroke-width=".05" fill="#333"/><path d="M897.38 219l-14.26 4.63v-9.26z" stroke="#333" fill="#333"/><path d="M1580 598.5V231a12 12 0 0 0-12-12h-290.62" stroke="#333" fill="none"/><path d="M1580.5 599h-1v-.5h1z" stroke="#333" stroke-width=".05" fill="#333"/><path d="M1262.62 219l14.26-4.63v9.26z" stroke="#333" fill="#333"/><path d="M1080 395.38V428a12 12 0 0 1-12 12H552a12 12 0 0 0-12 12v236.5a12 12 0 0 1-12 12h-86.5" stroke="#333" fill="none"/><path d="M1080 380.62l4.63 14.26h-9.27z" stroke="#333" fill="#333"/><path d="M441.5 701h-.5v-1h.5z" stroke="#333" stroke-width=".05" fill="#333"/><g><use xlink:href="#ae" transform="matrix(1,0,0,1,440.530864197531,664.2333333333333) translate(0 21.511111111111106)"/></g><g><use xlink:href="#af" transform="matrix(1,0,0,1,1092.6352549156243,378.86666666666673) translate(0 21.511111111111106)"/></g><path d="M1761.5 787.95h133a12 12 0 0 0 12-12v-519.2a12 12 0 0 1 12-12h117.13" stroke="#333" fill="none"/><path d="M1761.5 788.45h-.5v-1h.5z" stroke="#333" stroke-width=".05" fill="#333"/><path d="M2050.4 244.74l-14.27 4.64v-9.27z" stroke="#333" fill="#333"/><g><use xlink:href="#ae" transform="matrix(1,0,0,1,1760.530864197531,791.9538995647598) translate(0 21.511111111111106)"/></g><g><use xlink:href="#ae" transform="matrix(1,0,0,1,2037.542478463962,203.8420050762689) translate(0 21.511111111111106)"/></g><path d="M1181.5 779.68H1348a12 12 0 0 0 12-12V153.34a12 12 0 0 1 12-12h663.63" stroke="#333" fill="none"/><path d="M1181.5 780.18h-.5v-1h.5z" stroke="#333" stroke-width=".05" fill="#333"/><path d="M2050.4 141.34l-14.27 4.63v-9.27z" stroke="#333" fill="#333"/><g><use xlink:href="#ae" transform="matrix(1,0,0,1,1180.530864197531,783.6814176795656) translate(0 21.511111111111106)"/></g><g><use xlink:href="#ae" transform="matrix(1,0,0,1,2037.5424784639622,100.43598151133978) translate(0 21.511111111111106)"/></g><path d="M1761.5 912.04H1938a12 12 0 0 1 12 12V1139a12 12 0 0 0 12 12h160.62" stroke="#333" fill="none"/><path d="M1761.5 912.54h-.5v-1h.5z" stroke="#333" stroke-width=".05" fill="#333"/><path d="M2137.38 1151l-14.26 4.63v-9.27z" stroke="#333" fill="#333"/><defs><path fill="#333" d="M232-93c-1 65-40 97-104 97C67 4 28-28 28-90v-158h33c8 89-33 224 67 224 102 0 64-133 71-224h33v155" id="ag"/><path fill="#333" d="M135-143c-3-34-86-38-87 0 15 53 115 12 119 90S17 21 10-45l28-5c4 36 97 45 98 0-10-56-113-15-118-90-4-57 82-63 122-42 12 7 21 19 24 35" id="ah"/><path fill="#333" d="M100-194c63 0 86 42 84 106H49c0 40 14 67 53 68 26 1 43-12 49-29l28 8c-11 28-37 45-77 45C44 4 14-33 15-96c1-61 26-98 85-98zm52 81c6-60-76-77-97-28-3 7-6 17-6 28h103" id="ai"/><path fill="#333" d="M114-163C36-179 61-72 57 0H25l-1-190h30c1 12-1 29 2 39 6-27 23-49 58-41v29" id="aj"/><g id="a"><use transform="matrix(0.08086419753086417,0,0,0.08086419753086417,0,0)" xlink:href="#ag"/><use transform="matrix(0.08086419753086417,0,0,0.08086419753086417,20.94382716049382,0)" xlink:href="#ah"/><use transform="matrix(0.08086419753086417,0,0,0.08086419753086417,35.49938271604937,0)" xlink:href="#ai"/><use transform="matrix(0.08086419753086417,0,0,0.08086419753086417,51.6722222222222,0)" xlink:href="#aj"/></g><path fill="#333" d="M33 0v-248h34V0H33" id="ak"/><path fill="#333" d="M85-194c31 0 48 13 60 33l-1-100h32l1 261h-30c-2-10 0-23-3-31C134-8 116 4 85 4 32 4 16-35 15-94c0-66 23-100 70-100zm9 24c-40 0-46 34-46 75 0 40 6 74 45 74 42 0 51-32 51-76 0-42-9-74-50-73" id="al"/><g id="b"><use transform="matrix(0.08086419753086417,0,0,0.08086419753086417,0,0)" xlink:href="#ak"/><use transform="matrix(0.08086419753086417,0,0,0.08086419753086417,8.086419753086417,0)" xlink:href="#al"/></g><path fill="#333" d="M33-154v-36h34v36H33zM33 0v-36h34V0H33" id="am"/><use transform="matrix(0.08086419753086417,0,0,0.08086419753086417,0,0)" xlink:href="#am" id="c"/><path fill="#333" d="M30 0v-248h33v221h125V0H30" id="an"/><path fill="#333" d="M140-251c81 0 123 46 123 126C263-46 219 4 140 4 59 4 17-45 17-125s42-126 123-126zm0 227c63 0 89-41 89-101s-29-99-89-99c-61 0-89 39-89 99S79-25 140-24" id="ao"/><path fill="#333" d="M190 0L58-211 59 0H30v-248h39L202-35l-2-213h31V0h-41" id="ap"/><path fill="#333" d="M143 4C61 4 22-44 18-125c-5-107 100-154 193-111 17 8 29 25 37 43l-32 9c-13-25-37-40-76-40-61 0-88 39-88 99 0 61 29 100 91 101 35 0 62-11 79-27v-45h-74v-28h105v86C228-13 192 4 143 4" id="aq"/><g id="d"><use transform="matrix(0.08086419753086417,0,0,0.08086419753086417,0,0)" xlink:href="#an"/><use transform="matrix(0.08086419753086417,0,0,0.08086419753086417,16.172839506172835,0)" xlink:href="#ao"/><use transform="matrix(0.08086419753086417,0,0,0.08086419753086417,38.8148148148148,0)" xlink:href="#ap"/><use transform="matrix(0.08086419753086417,0,0,0.08086419753086417,59.75864197530862,0)" xlink:href="#aq"/></g><path fill="#333" d="M141-36C126-15 110 5 73 4 37 3 15-17 15-53c-1-64 63-63 125-63 3-35-9-54-41-54-24 1-41 7-42 31l-33-3c5-37 33-52 76-52 45 0 72 20 72 64v82c-1 20 7 32 28 27v20c-31 9-61-2-59-35zM48-53c0 20 12 33 32 33 41-3 63-29 60-74-43 2-92-5-92 41" id="ar"/><path fill="#333" d="M210-169c-67 3-38 105-44 169h-31v-121c0-29-5-50-35-48C34-165 62-65 56 0H25l-1-190h30c1 10-1 24 2 32 10-44 99-50 107 0 11-21 27-35 58-36 85-2 47 119 55 194h-31v-121c0-29-5-49-35-48" id="as"/><g id="e"><use transform="matrix(0.08086419753086417,0,0,0.08086419753086417,0,0)" xlink:href="#ap"/><use transform="matrix(0.08086419753086417,0,0,0.08086419753086417,20.94382716049382,0)" xlink:href="#ar"/><use transform="matrix(0.08086419753086417,0,0,0.08086419753086417,37.11666666666666,0)" xlink:href="#as"/><use transform="matrix(0.08086419753086417,0,0,0.08086419753086417,61.29506172839505,0)" xlink:href="#ai"/></g><path fill="#333" d="M185-189c-5-48-123-54-124 2 14 75 158 14 163 119 3 78-121 87-175 55-17-10-28-26-33-46l33-7c5 56 141 63 141-1 0-78-155-14-162-118-5-82 145-84 179-34 5 7 8 16 11 25" id="at"/><path fill="#333" d="M127-220V0H93v-220H8v-28h204v28h-85" id="au"/><path fill="#333" d="M233-177c-1 41-23 64-60 70L243 0h-38l-65-103H63V0H30v-248c88 3 205-21 203 71zM63-129c60-2 137 13 137-47 0-61-80-42-137-45v92" id="av"/><g id="f"><use transform="matrix(0.08086419753086417,0,0,0.08086419753086417,0,0)" xlink:href="#at"/><use transform="matrix(0.08086419753086417,0,0,0.08086419753086417,19.4074074074074,0)" xlink:href="#au"/><use transform="matrix(0.08086419753086417,0,0,0.08086419753086417,37.11666666666665,0)" xlink:href="#av"/><use transform="matrix(0.08086419753086417,0,0,0.08086419753086417,58.06049382716048,0)" xlink:href="#ak"/><use transform="matrix(0.08086419753086417,0,0,0.08086419753086417,66.14691358024689,0)" xlink:href="#ap"/><use transform="matrix(0.08086419753086417,0,0,0.08086419753086417,87.09074074074071,0)" xlink:href="#aq"/></g><path fill="#333" d="M30-248c87 1 191-15 191 75 0 78-77 80-158 76V0H30v-248zm33 125c57 0 124 11 124-50 0-59-68-47-124-48v98" id="aw"/><path fill="#333" d="M106-169C34-169 62-67 57 0H25v-261h32l-1 103c12-21 28-36 61-36 89 0 53 116 60 194h-32v-121c2-32-8-49-39-48" id="ax"/><path fill="#333" d="M100-194c62-1 85 37 85 99 1 63-27 99-86 99S16-35 15-95c0-66 28-99 85-99zM99-20c44 1 53-31 53-75 0-43-8-75-51-75s-53 32-53 75 10 74 51 75" id="ay"/><path fill="#333" d="M117-194c89-4 53 116 60 194h-32v-121c0-31-8-49-39-48C34-167 62-67 57 0H25l-1-190h30c1 10-1 24 2 32 11-22 29-35 61-36" id="az"/><g id="g"><use transform="matrix(0.08086419753086417,0,0,0.08086419753086417,0,0)" xlink:href="#aw"/><use transform="matrix(0.08086419753086417,0,0,0.08086419753086417,19.4074074074074,0)" xlink:href="#ax"/><use transform="matrix(0.08086419753086417,0,0,0.08086419753086417,35.58024691358024,0)" xlink:href="#ay"/><use transform="matrix(0.08086419753086417,0,0,0.08086419753086417,51.75308641975308,0)" xlink:href="#az"/><use transform="matrix(0.08086419753086417,0,0,0.08086419753086417,67.92592592592591,0)" xlink:href="#ai"/></g><path fill="#333" d="M84 4C-5 8 30-112 23-190h32v120c0 31 7 50 39 49 72-2 45-101 50-169h31l1 190h-30c-1-10 1-25-2-33-11 22-28 36-60 37" id="aA"/><path fill="#333" d="M115-194c53 0 69 39 70 98 0 66-23 100-70 100C84 3 66-7 56-30L54 0H23l1-261h32v101c10-23 28-34 59-34zm-8 174c40 0 45-34 45-75 0-40-5-75-45-74-42 0-51 32-51 76 0 43 10 73 51 73" id="aB"/><g id="h"><use transform="matrix(0.08086419753086417,0,0,0.08086419753086417,0,0)" xlink:href="#ap"/><use transform="matrix(0.08086419753086417,0,0,0.08086419753086417,20.94382716049382,0)" xlink:href="#aA"/><use transform="matrix(0.08086419753086417,0,0,0.08086419753086417,37.11666666666666,0)" xlink:href="#as"/><use transform="matrix(0.08086419753086417,0,0,0.08086419753086417,61.29506172839505,0)" xlink:href="#aB"/><use transform="matrix(0.08086419753086417,0,0,0.08086419753086417,77.46790123456788,0)" xlink:href="#ai"/><use transform="matrix(0.08086419753086417,0,0,0.08086419753086417,93.64074074074071,0)" xlink:href="#aj"/></g><path fill="#333" d="M205 0l-28-72H64L36 0H1l101-248h38L239 0h-34zm-38-99l-47-123c-12 45-31 82-46 123h93" id="aC"/><path fill="#333" d="M59-47c-2 24 18 29 38 22v24C64 9 27 4 27-40v-127H5v-23h24l9-43h21v43h35v23H59v120" id="aD"/><g id="i"><use transform="matrix(0.08086419753086417,0,0,0.08086419753086417,0,0)" xlink:href="#aC"/><use transform="matrix(0.08086419753086417,0,0,0.08086419753086417,19.4074074074074,0)" xlink:href="#aB"/><use transform="matrix(0.08086419753086417,0,0,0.08086419753086417,35.58024691358024,0)" xlink:href="#ay"/><use transform="matrix(0.08086419753086417,0,0,0.08086419753086417,51.75308641975308,0)" xlink:href="#aA"/><use transform="matrix(0.08086419753086417,0,0,0.08086419753086417,67.92592592592591,0)" xlink:href="#aD"/></g><path fill="#333" d="M101-234c-31-9-42 10-38 44h38v23H63V0H32v-167H5v-23h27c-7-52 17-82 69-68v24" id="aE"/><path fill="#333" d="M24-231v-30h32v30H24zM24 0v-190h32V0H24" id="aF"/><path fill="#333" d="M24 0v-261h32V0H24" id="aG"/><g id="j"><use transform="matrix(0.08086419753086417,0,0,0.08086419753086417,0,0)" xlink:href="#aw"/><use transform="matrix(0.08086419753086417,0,0,0.08086419753086417,19.4074074074074,0)" xlink:href="#aj"/><use transform="matrix(0.08086419753086417,0,0,0.08086419753086417,29.03024691358024,0)" xlink:href="#ay"/><use transform="matrix(0.08086419753086417,0,0,0.08086419753086417,45.20308641975307,0)" xlink:href="#aE"/><use transform="matrix(0.08086419753086417,0,0,0.08086419753086417,53.28950617283949,0)" xlink:href="#aF"/><use transform="matrix(0.08086419753086417,0,0,0.08086419753086417,59.677777777777756,0)" xlink:href="#aG"/><use transform="matrix(0.08086419753086417,0,0,0.08086419753086417,66.06604938271603,0)" xlink:href="#ai"/></g><use transform="matrix(0.08086419753086417,0,0,0.08086419753086417,0,0)" xlink:href="#am" id="k"/><path fill="#333" d="M240 0l2-218c-23 76-54 145-80 218h-23L58-218 59 0H30v-248h44l77 211c21-75 51-140 76-211h43V0h-30" id="aH"/><path fill="#333" d="M30 0v-248h187v28H63v79h144v27H63v87h162V0H30" id="aI"/><g id="l"><use transform="matrix(0.08086419753086417,0,0,0.08086419753086417,0,0)" xlink:href="#ak"/><use transform="matrix(0.08086419753086417,0,0,0.08086419753086417,8.086419753086417,0)" xlink:href="#aH"/><use transform="matrix(0.08086419753086417,0,0,0.08086419753086417,32.264814814814805,0)" xlink:href="#aC"/><use transform="matrix(0.08086419753086417,0,0,0.08086419753086417,51.6722222222222,0)" xlink:href="#aq"/><use transform="matrix(0.08086419753086417,0,0,0.08086419753086417,74.31419753086416,0)" xlink:href="#aI"/></g><path fill="#333" d="M18-100v-36l175-74v27L42-118l151 64v27" id="aJ"/><path fill="#333" d="M177-190C167-65 218 103 67 71c-23-6-38-20-44-43l32-5c15 47 100 32 89-28v-30C133-14 115 1 83 1 29 1 15-40 15-95c0-56 16-97 71-98 29-1 48 16 59 35 1-10 0-23 2-32h30zM94-22c36 0 50-32 50-73 0-42-14-75-50-75-39 0-46 34-46 75s6 73 46 73" id="aK"/><path fill="#333" d="M18-27v-27l151-64-151-65v-27l175 74v36" id="aL"/><g id="m"><use transform="matrix(0.08086419753086417,0,0,0.08086419753086417,0,0)" xlink:href="#an"/><use transform="matrix(0.08086419753086417,0,0,0.08086419753086417,16.172839506172835,0)" xlink:href="#aF"/><use transform="matrix(0.08086419753086417,0,0,0.08086419753086417,22.561111111111103,0)" xlink:href="#ah"/><use transform="matrix(0.08086419753086417,0,0,0.08086419753086417,37.11666666666665,0)" xlink:href="#aD"/><use transform="matrix(0.08086419753086417,0,0,0.08086419753086417,45.20308641975307,0)" xlink:href="#aJ"/><use transform="matrix(0.08086419753086417,0,0,0.08086419753086417,62.184567901234544,0)" xlink:href="#ak"/><use transform="matrix(0.08086419753086417,0,0,0.08086419753086417,70.27098765432096,0)" xlink:href="#aH"/><use transform="matrix(0.08086419753086417,0,0,0.08086419753086417,94.44938271604936,0)" xlink:href="#ai"/><use transform="matrix(0.08086419753086417,0,0,0.08086419753086417,110.62222222222219,0)" xlink:href="#ah"/><use transform="matrix(0.08086419753086417,0,0,0.08086419753086417,125.17777777777772,0)" xlink:href="#ah"/><use transform="matrix(0.08086419753086417,0,0,0.08086419753086417,139.73333333333326,0)" xlink:href="#ar"/><use transform="matrix(0.08086419753086417,0,0,0.08086419753086417,155.9061728395061,0)" xlink:href="#aK"/><use transform="matrix(0.08086419753086417,0,0,0.08086419753086417,172.0790123456789,0)" xlink:href="#ai"/><use transform="matrix(0.08086419753086417,0,0,0.08086419753086417,188.25185185185174,0)" xlink:href="#aL"/></g><g id="n"><use transform="matrix(0.08086419753086417,0,0,0.08086419753086417,0,0)" xlink:href="#am"/><use transform="matrix(0.08086419753086417,0,0,0.08086419753086417,8.086419753086417,0)" xlink:href="#ak"/><use transform="matrix(0.08086419753086417,0,0,0.08086419753086417,16.172839506172835,0)" xlink:href="#aH"/><use transform="matrix(0.08086419753086417,0,0,0.08086419753086417,40.35123456790122,0)" xlink:href="#ai"/><use transform="matrix(0.08086419753086417,0,0,0.08086419753086417,56.52407407407406,0)" xlink:href="#ah"/><use transform="matrix(0.08086419753086417,0,0,0.08086419753086417,71.07962962962961,0)" xlink:href="#ah"/><use transform="matrix(0.08086419753086417,0,0,0.08086419753086417,85.63518518518515,0)" xlink:href="#ar"/><use transform="matrix(0.08086419753086417,0,0,0.08086419753086417,101.80802469135799,0)" xlink:href="#aK"/><use transform="matrix(0.08086419753086417,0,0,0.08086419753086417,117.98086419753082,0)" xlink:href="#ai"/></g><path fill="#333" d="M115-194c55 1 70 41 70 98S169 2 115 4C84 4 66-9 55-30l1 105H24l-1-265h31l2 30c10-21 28-34 59-34zm-8 174c40 0 45-34 45-75s-6-73-45-74c-42 0-51 32-51 76 0 43 10 73 51 73" id="aM"/><path fill="#333" d="M87 75C49 33 22-17 22-94c0-76 28-126 65-167h31c-38 41-64 92-64 168S80 34 118 75H87" id="aN"/><path fill="#333" d="M33-261c38 41 65 92 65 168S71 34 33 75H2C39 34 66-17 66-93S39-220 2-261h31" id="aO"/><g id="o"><use transform="matrix(0.09320987654320984,0,0,0.09320987654320984,0,0)" xlink:href="#at"/><use transform="matrix(0.09320987654320984,0,0,0.09320987654320984,22.37037037037036,0)" xlink:href="#aF"/><use transform="matrix(0.09320987654320984,0,0,0.09320987654320984,29.733950617283938,0)" xlink:href="#aK"/><use transform="matrix(0.09320987654320984,0,0,0.09320987654320984,48.375925925925905,0)" xlink:href="#az"/><use transform="matrix(0.09320987654320984,0,0,0.09320987654320984,67.01790123456787,0)" xlink:href="#ag"/><use transform="matrix(0.09320987654320984,0,0,0.09320987654320984,91.15925925925922,0)" xlink:href="#aM"/><use transform="matrix(0.09320987654320984,0,0,0.09320987654320984,109.80123456790119,0)" xlink:href="#aN"/><use transform="matrix(0.09320987654320984,0,0,0.09320987654320984,120.89320987654315,0)" xlink:href="#aO"/></g><g id="p"><use transform="matrix(0.09320987654320984,0,0,0.09320987654320984,0,0)" xlink:href="#at"/><use transform="matrix(0.09320987654320984,0,0,0.09320987654320984,22.37037037037036,0)" xlink:href="#aF"/><use transform="matrix(0.09320987654320984,0,0,0.09320987654320984,29.733950617283938,0)" xlink:href="#aK"/><use transform="matrix(0.09320987654320984,0,0,0.09320987654320984,48.375925925925905,0)" xlink:href="#az"/><use transform="matrix(0.09320987654320984,0,0,0.09320987654320984,67.01790123456787,0)" xlink:href="#ak"/><use transform="matrix(0.09320987654320984,0,0,0.09320987654320984,76.33888888888886,0)" xlink:href="#az"/><use transform="matrix(0.09320987654320984,0,0,0.09320987654320984,94.98086419753082,0)" xlink:href="#aN"/><use transform="matrix(0.09320987654320984,0,0,0.09320987654320984,106.0728395061728,0)" xlink:href="#aO"/></g><path fill="#333" d="M212-179c-10-28-35-45-73-45-59 0-87 40-87 99 0 60 29 101 89 101 43 0 62-24 78-52l27 14C228-24 195 4 139 4 59 4 22-46 18-125c-6-104 99-153 187-111 19 9 31 26 39 46" id="aP"/><path fill="#333" d="M96-169c-40 0-48 33-48 73s9 75 48 75c24 0 41-14 43-38l32 2c-6 37-31 61-74 61-59 0-76-41-82-99-10-93 101-131 147-64 4 7 5 14 7 22l-32 3c-4-21-16-35-41-35" id="aQ"/><g id="q"><use transform="matrix(0.09320987654320984,0,0,0.09320987654320984,0,0)" xlink:href="#aP"/><use transform="matrix(0.09320987654320984,0,0,0.09320987654320984,24.141358024691346,0)" xlink:href="#ay"/><use transform="matrix(0.09320987654320984,0,0,0.09320987654320984,42.78333333333332,0)" xlink:href="#az"/><use transform="matrix(0.09320987654320984,0,0,0.09320987654320984,61.425308641975285,0)" xlink:href="#az"/><use transform="matrix(0.09320987654320984,0,0,0.09320987654320984,80.06728395061725,0)" xlink:href="#ai"/><use transform="matrix(0.09320987654320984,0,0,0.09320987654320984,98.70925925925924,0)" xlink:href="#aQ"/><use transform="matrix(0.09320987654320984,0,0,0.09320987654320984,115.48703703703701,0)" xlink:href="#aD"/><use transform="matrix(0.09320987654320984,0,0,0.09320987654320984,124.80802469135799,0)" xlink:href="#aN"/><use transform="matrix(0.09320987654320984,0,0,0.09320987654320984,135.89999999999995,0)" xlink:href="#aO"/></g><path fill="#333" d="M30-248c118-7 216 8 213 122C240-48 200 0 122 0H30v-248zM63-27c89 8 146-16 146-99s-60-101-146-95v194" id="aR"/><g id="r"><use transform="matrix(0.09320987654320984,0,0,0.09320987654320984,0,0)" xlink:href="#aR"/><use transform="matrix(0.09320987654320984,0,0,0.09320987654320984,24.141358024691346,0)" xlink:href="#ai"/><use transform="matrix(0.09320987654320984,0,0,0.09320987654320984,42.78333333333332,0)" xlink:href="#aG"/><use transform="matrix(0.09320987654320984,0,0,0.09320987654320984,50.14691358024689,0)" xlink:href="#ai"/><use transform="matrix(0.09320987654320984,0,0,0.09320987654320984,68.78888888888886,0)" xlink:href="#aD"/><use transform="matrix(0.09320987654320984,0,0,0.09320987654320984,78.10987654320985,0)" xlink:href="#ai"/><use transform="matrix(0.09320987654320984,0,0,0.09320987654320984,96.75185185185182,0)" xlink:href="#aC"/><use transform="matrix(0.09320987654320984,0,0,0.09320987654320984,119.12222222222216,0)" xlink:href="#aQ"/><use transform="matrix(0.09320987654320984,0,0,0.09320987654320984,135.89999999999995,0)" xlink:href="#aQ"/><use transform="matrix(0.09320987654320984,0,0,0.09320987654320984,152.67777777777772,0)" xlink:href="#ay"/><use transform="matrix(0.09320987654320984,0,0,0.09320987654320984,171.3197530864197,0)" xlink:href="#aA"/><use transform="matrix(0.09320987654320984,0,0,0.09320987654320984,189.96172839506167,0)" xlink:href="#az"/><use transform="matrix(0.09320987654320984,0,0,0.09320987654320984,208.60370370370364,0)" xlink:href="#aD"/><use transform="matrix(0.09320987654320984,0,0,0.09320987654320984,217.92469135802463,0)" xlink:href="#aN"/><use transform="matrix(0.09320987654320984,0,0,0.09320987654320984,229.0166666666666,0)" xlink:href="#aO"/></g><path fill="#333" d="M197 0v-115H63V0H30v-248h33v105h134v-105h34V0h-34" id="aS"/><path fill="#333" d="M179-190L93 31C79 59 56 82 12 73V49c39 6 53-20 64-50L1-190h34L92-34l54-156h33" id="aT"/><g id="s"><use transform="matrix(0.09320987654320984,0,0,0.09320987654320984,0,0)" xlink:href="#aq"/><use transform="matrix(0.09320987654320984,0,0,0.09320987654320984,26.098765432098755,0)" xlink:href="#ai"/><use transform="matrix(0.09320987654320984,0,0,0.09320987654320984,44.74074074074072,0)" xlink:href="#aD"/><use transform="matrix(0.09320987654320984,0,0,0.09320987654320984,54.06172839506171,0)" xlink:href="#aS"/><use transform="matrix(0.09320987654320984,0,0,0.09320987654320984,78.20308641975305,0)" xlink:href="#aF"/><use transform="matrix(0.09320987654320984,0,0,0.09320987654320984,85.56666666666662,0)" xlink:href="#ah"/><use transform="matrix(0.09320987654320984,0,0,0.09320987654320984,102.3444444444444,0)" xlink:href="#aD"/><use transform="matrix(0.09320987654320984,0,0,0.09320987654320984,111.66543209876538,0)" xlink:href="#ay"/><use transform="matrix(0.09320987654320984,0,0,0.09320987654320984,130.30740740740734,0)" xlink:href="#aj"/><use transform="matrix(0.09320987654320984,0,0,0.09320987654320984,141.3993827160493,0)" xlink:href="#aT"/><use transform="matrix(0.09320987654320984,0,0,0.09320987654320984,158.17716049382707,0)" xlink:href="#aN"/><use transform="matrix(0.09320987654320984,0,0,0.09320987654320984,169.26913580246904,0)" xlink:href="#aO"/></g><g id="t"><use transform="matrix(0.09320987654320984,0,0,0.09320987654320984,0,0)" xlink:href="#aR"/><use transform="matrix(0.09320987654320984,0,0,0.09320987654320984,24.141358024691346,0)" xlink:href="#ai"/><use transform="matrix(0.09320987654320984,0,0,0.09320987654320984,42.78333333333332,0)" xlink:href="#aG"/><use transform="matrix(0.09320987654320984,0,0,0.09320987654320984,50.14691358024689,0)" xlink:href="#ai"/><use transform="matrix(0.09320987654320984,0,0,0.09320987654320984,68.78888888888886,0)" xlink:href="#aD"/><use transform="matrix(0.09320987654320984,0,0,0.09320987654320984,78.10987654320985,0)" xlink:href="#ai"/><use transform="matrix(0.09320987654320984,0,0,0.09320987654320984,96.75185185185182,0)" xlink:href="#aS"/><use transform="matrix(0.09320987654320984,0,0,0.09320987654320984,120.89320987654318,0)" xlink:href="#aF"/><use transform="matrix(0.09320987654320984,0,0,0.09320987654320984,128.25679012345674,0)" xlink:href="#ah"/><use transform="matrix(0.09320987654320984,0,0,0.09320987654320984,145.0345679012345,0)" xlink:href="#aD"/><use transform="matrix(0.09320987654320984,0,0,0.09320987654320984,154.3555555555555,0)" xlink:href="#ay"/><use transform="matrix(0.09320987654320984,0,0,0.09320987654320984,172.99753086419747,0)" xlink:href="#aj"/><use transform="matrix(0.09320987654320984,0,0,0.09320987654320984,184.08950617283944,0)" xlink:href="#aT"/><use transform="matrix(0.09320987654320984,0,0,0.09320987654320984,200.8672839506172,0)" xlink:href="#aN"/><use transform="matrix(0.09320987654320984,0,0,0.09320987654320984,211.95925925925917,0)" xlink:href="#aO"/></g><path fill="#333" d="M160-131c35 5 61 23 61 61C221 17 115-2 30 0v-248c76 3 177-17 177 60 0 33-19 50-47 57zm-97-11c50-1 110 9 110-42 0-47-63-36-110-37v79zm0 115c55-2 124 14 124-45 0-56-70-42-124-44v89" id="aU"/><path fill="#333" d="M143 0L79-87 56-68V0H24v-261h32v163l83-92h37l-77 82L181 0h-38" id="aV"/><g id="u"><use transform="matrix(0.09320987654320984,0,0,0.09320987654320984,0,0)" xlink:href="#aR"/><use transform="matrix(0.09320987654320984,0,0,0.09320987654320984,24.141358024691346,0)" xlink:href="#ay"/><use transform="matrix(0.09320987654320984,0,0,0.09320987654320984,42.78333333333332,0)" xlink:href="#aU"/><use transform="matrix(0.09320987654320984,0,0,0.09320987654320984,65.15370370370368,0)" xlink:href="#ar"/><use transform="matrix(0.09320987654320984,0,0,0.09320987654320984,83.79567901234566,0)" xlink:href="#aQ"/><use transform="matrix(0.09320987654320984,0,0,0.09320987654320984,100.57345679012343,0)" xlink:href="#aV"/><use transform="matrix(0.09320987654320984,0,0,0.09320987654320984,117.3512345679012,0)" xlink:href="#ag"/><use transform="matrix(0.09320987654320984,0,0,0.09320987654320984,141.49259259259256,0)" xlink:href="#aM"/><use transform="matrix(0.09320987654320984,0,0,0.09320987654320984,160.13456790123453,0)" xlink:href="#aN"/><use transform="matrix(0.09320987654320984,0,0,0.09320987654320984,171.2265432098765,0)" xlink:href="#aO"/></g><g id="x"><use transform="matrix(0.08086419753086417,0,0,0.08086419753086417,0,0)" xlink:href="#at"/><use transform="matrix(0.08086419753086417,0,0,0.08086419753086417,19.4074074074074,0)" xlink:href="#aF"/><use transform="matrix(0.08086419753086417,0,0,0.08086419753086417,25.79567901234567,0)" xlink:href="#az"/><use transform="matrix(0.08086419753086417,0,0,0.08086419753086417,41.96851851851851,0)" xlink:href="#aK"/><use transform="matrix(0.08086419753086417,0,0,0.08086419753086417,58.141358024691336,0)" xlink:href="#aG"/><use transform="matrix(0.08086419753086417,0,0,0.08086419753086417,64.52962962962961,0)" xlink:href="#ai"/><use transform="matrix(0.08086419753086417,0,0,0.08086419753086417,80.70246913580245,0)" xlink:href="#aH"/><use transform="matrix(0.08086419753086417,0,0,0.08086419753086417,104.88086419753083,0)" xlink:href="#ai"/><use transform="matrix(0.08086419753086417,0,0,0.08086419753086417,121.05370370370366,0)" xlink:href="#ah"/><use transform="matrix(0.08086419753086417,0,0,0.08086419753086417,135.6092592592592,0)" xlink:href="#ah"/><use transform="matrix(0.08086419753086417,0,0,0.08086419753086417,150.16481481481475,0)" xlink:href="#ar"/><use transform="matrix(0.08086419753086417,0,0,0.08086419753086417,166.3376543209876,0)" xlink:href="#aK"/><use transform="matrix(0.08086419753086417,0,0,0.08086419753086417,182.51049382716045,0)" xlink:href="#ai"/></g><g id="y"><use transform="matrix(0.08086419753086417,0,0,0.08086419753086417,0,0)" xlink:href="#aH"/><use transform="matrix(0.08086419753086417,0,0,0.08086419753086417,24.178395061728388,0)" xlink:href="#ai"/><use transform="matrix(0.08086419753086417,0,0,0.08086419753086417,40.35123456790122,0)" xlink:href="#ah"/><use transform="matrix(0.08086419753086417,0,0,0.08086419753086417,54.90679012345677,0)" xlink:href="#ah"/><use transform="matrix(0.08086419753086417,0,0,0.08086419753086417,69.46234567901232,0)" xlink:href="#ar"/><use transform="matrix(0.08086419753086417,0,0,0.08086419753086417,85.63518518518515,0)" xlink:href="#aK"/><use transform="matrix(0.08086419753086417,0,0,0.08086419753086417,101.80802469135799,0)" xlink:href="#ai"/></g><g id="z"><use transform="matrix(0.08086419753086417,0,0,0.08086419753086417,0,0)" xlink:href="#aF"/><use transform="matrix(0.08086419753086417,0,0,0.08086419753086417,6.38827160493827,0)" xlink:href="#al"/></g><g id="A"><use transform="matrix(0.08086419753086417,0,0,0.08086419753086417,0,0)" xlink:href="#aP"/><use transform="matrix(0.08086419753086417,0,0,0.08086419753086417,20.94382716049382,0)" xlink:href="#ay"/><use transform="matrix(0.08086419753086417,0,0,0.08086419753086417,37.11666666666666,0)" xlink:href="#az"/><use transform="matrix(0.08086419753086417,0,0,0.08086419753086417,53.289506172839495,0)" xlink:href="#aD"/><use transform="matrix(0.08086419753086417,0,0,0.08086419753086417,61.37592592592591,0)" xlink:href="#ai"/><use transform="matrix(0.08086419753086417,0,0,0.08086419753086417,77.54876543209875,0)" xlink:href="#az"/><use transform="matrix(0.08086419753086417,0,0,0.08086419753086417,93.72160493827157,0)" xlink:href="#aD"/></g><g id="B"><use transform="matrix(0.08086419753086417,0,0,0.08086419753086417,0,0)" xlink:href="#ak"/><use transform="matrix(0.08086419753086417,0,0,0.08086419753086417,8.086419753086417,0)" xlink:href="#aP"/><use transform="matrix(0.08086419753086417,0,0,0.08086419753086417,29.03024691358024,0)" xlink:href="#ao"/><use transform="matrix(0.08086419753086417,0,0,0.08086419753086417,51.6722222222222,0)" xlink:href="#ap"/><use transform="matrix(0.08086419753086417,0,0,0.08086419753086417,72.61604938271603,0)" xlink:href="#au"/><use transform="matrix(0.08086419753086417,0,0,0.08086419753086417,90.32530864197528,0)" xlink:href="#aI"/><use transform="matrix(0.08086419753086417,0,0,0.08086419753086417,109.73271604938267,0)" xlink:href="#ap"/><use transform="matrix(0.08086419753086417,0,0,0.08086419753086417,130.6765432098765,0)" xlink:href="#au"/></g><g id="C"><use transform="matrix(0.08086419753086417,0,0,0.08086419753086417,0,0)" xlink:href="#at"/><use transform="matrix(0.08086419753086417,0,0,0.08086419753086417,19.4074074074074,0)" xlink:href="#ai"/><use transform="matrix(0.08086419753086417,0,0,0.08086419753086417,35.58024691358024,0)" xlink:href="#az"/><use transform="matrix(0.08086419753086417,0,0,0.08086419753086417,51.75308641975308,0)" xlink:href="#al"/><use transform="matrix(0.08086419753086417,0,0,0.08086419753086417,67.92592592592591,0)" xlink:href="#ai"/><use transform="matrix(0.08086419753086417,0,0,0.08086419753086417,84.09876543209874,0)" xlink:href="#aj"/></g><path fill="#333" d="M108 0H70L1-190h34L89-25l56-165h34" id="aW"/><g id="D"><use transform="matrix(0.08086419753086417,0,0,0.08086419753086417,0,0)" xlink:href="#av"/><use transform="matrix(0.08086419753086417,0,0,0.08086419753086417,20.94382716049382,0)" xlink:href="#ai"/><use transform="matrix(0.08086419753086417,0,0,0.08086419753086417,37.11666666666666,0)" xlink:href="#aQ"/><use transform="matrix(0.08086419753086417,0,0,0.08086419753086417,51.67222222222222,0)" xlink:href="#ai"/><use transform="matrix(0.08086419753086417,0,0,0.08086419753086417,67.84506172839505,0)" xlink:href="#aF"/><use transform="matrix(0.08086419753086417,0,0,0.08086419753086417,74.23333333333332,0)" xlink:href="#aW"/><use transform="matrix(0.08086419753086417,0,0,0.08086419753086417,88.78888888888886,0)" xlink:href="#ai"/><use transform="matrix(0.08086419753086417,0,0,0.08086419753086417,104.9617283950617,0)" xlink:href="#aj"/></g><g id="E"><use transform="matrix(0.08086419753086417,0,0,0.08086419753086417,0,0)" xlink:href="#ak"/><use transform="matrix(0.08086419753086417,0,0,0.08086419753086417,8.086419753086417,0)" xlink:href="#al"/></g><g id="F"><use transform="matrix(0.08086419753086417,0,0,0.08086419753086417,0,0)" xlink:href="#au"/><use transform="matrix(0.08086419753086417,0,0,0.08086419753086417,16.65802469135802,0)" xlink:href="#aF"/><use transform="matrix(0.08086419753086417,0,0,0.08086419753086417,23.046296296296287,0)" xlink:href="#as"/><use transform="matrix(0.08086419753086417,0,0,0.08086419753086417,47.22469135802468,0)" xlink:href="#ai"/><use transform="matrix(0.08086419753086417,0,0,0.08086419753086417,63.39753086419751,0)" xlink:href="#at"/><use transform="matrix(0.08086419753086417,0,0,0.08086419753086417,82.80493827160491,0)" xlink:href="#aD"/><use transform="matrix(0.08086419753086417,0,0,0.08086419753086417,90.89135802469133,0)" xlink:href="#ar"/><use transform="matrix(0.08086419753086417,0,0,0.08086419753086417,107.06419753086416,0)" xlink:href="#as"/><use transform="matrix(0.08086419753086417,0,0,0.08086419753086417,131.24259259259256,0)" xlink:href="#aM"/><use transform="matrix(0.08086419753086417,0,0,0.08086419753086417,147.4154320987654,0)" xlink:href="#am"/></g><g id="G"><use transform="matrix(0.08086419753086417,0,0,0.08086419753086417,0,0)" xlink:href="#aR"/><use transform="matrix(0.08086419753086417,0,0,0.08086419753086417,20.94382716049382,0)" xlink:href="#aC"/><use transform="matrix(0.08086419753086417,0,0,0.08086419753086417,38.16790123456789,0)" xlink:href="#au"/><use transform="matrix(0.08086419753086417,0,0,0.08086419753086417,55.87716049382715,0)" xlink:href="#aI"/><use transform="matrix(0.08086419753086417,0,0,0.08086419753086417,75.28456790123455,0)" xlink:href="#au"/><use transform="matrix(0.08086419753086417,0,0,0.08086419753086417,92.99382716049381,0)" xlink:href="#ak"/><use transform="matrix(0.08086419753086417,0,0,0.08086419753086417,101.08024691358023,0)" xlink:href="#aH"/><use transform="matrix(0.08086419753086417,0,0,0.08086419753086417,125.25864197530862,0)" xlink:href="#aI"/></g><g id="H"><use transform="matrix(0.08086419753086417,0,0,0.08086419753086417,0,0)" xlink:href="#at"/><use transform="matrix(0.08086419753086417,0,0,0.08086419753086417,19.4074074074074,0)" xlink:href="#aD"/><use transform="matrix(0.08086419753086417,0,0,0.08086419753086417,27.49382716049382,0)" xlink:href="#ar"/><use transform="matrix(0.08086419753086417,0,0,0.08086419753086417,43.666666666666664,0)" xlink:href="#aD"/><use transform="matrix(0.08086419753086417,0,0,0.08086419753086417,51.75308641975308,0)" xlink:href="#aA"/><use transform="matrix(0.08086419753086417,0,0,0.08086419753086417,67.92592592592591,0)" xlink:href="#ah"/></g><g id="I"><use transform="matrix(0.08086419753086417,0,0,0.08086419753086417,0,0)" xlink:href="#at"/><use transform="matrix(0.08086419753086417,0,0,0.08086419753086417,19.4074074074074,0)" xlink:href="#au"/><use transform="matrix(0.08086419753086417,0,0,0.08086419753086417,34.93333333333332,0)" xlink:href="#aC"/><use transform="matrix(0.08086419753086417,0,0,0.08086419753086417,52.15740740740739,0)" xlink:href="#au"/><use transform="matrix(0.08086419753086417,0,0,0.08086419753086417,69.86666666666665,0)" xlink:href="#ag"/><use transform="matrix(0.08086419753086417,0,0,0.08086419753086417,90.81049382716047,0)" xlink:href="#at"/></g><g id="J"><use transform="matrix(0.09320987654320984,0,0,0.09320987654320984,0,0)" xlink:href="#at"/><use transform="matrix(0.09320987654320984,0,0,0.09320987654320984,22.37037037037036,0)" xlink:href="#ai"/><use transform="matrix(0.09320987654320984,0,0,0.09320987654320984,41.01234567901233,0)" xlink:href="#az"/><use transform="matrix(0.09320987654320984,0,0,0.09320987654320984,59.654320987654295,0)" xlink:href="#al"/><use transform="matrix(0.09320987654320984,0,0,0.09320987654320984,78.29629629629626,0)" xlink:href="#aH"/><use transform="matrix(0.09320987654320984,0,0,0.09320987654320984,106.166049382716,0)" xlink:href="#ai"/><use transform="matrix(0.09320987654320984,0,0,0.09320987654320984,124.80802469135799,0)" xlink:href="#ah"/><use transform="matrix(0.09320987654320984,0,0,0.09320987654320984,141.58580246913576,0)" xlink:href="#ah"/><use transform="matrix(0.09320987654320984,0,0,0.09320987654320984,158.36358024691353,0)" xlink:href="#ar"/><use transform="matrix(0.09320987654320984,0,0,0.09320987654320984,177.0055555555555,0)" xlink:href="#aK"/><use transform="matrix(0.09320987654320984,0,0,0.09320987654320984,195.64753086419748,0)" xlink:href="#ai"/><use transform="matrix(0.09320987654320984,0,0,0.09320987654320984,214.28950617283945,0)" xlink:href="#aN"/><use transform="matrix(0.09320987654320984,0,0,0.09320987654320984,225.38148148148142,0)" xlink:href="#aO"/></g><g id="K"><use transform="matrix(0.09320987654320984,0,0,0.09320987654320984,0,0)" xlink:href="#av"/><use transform="matrix(0.09320987654320984,0,0,0.09320987654320984,24.141358024691346,0)" xlink:href="#ai"/><use transform="matrix(0.09320987654320984,0,0,0.09320987654320984,42.78333333333332,0)" xlink:href="#aQ"/><use transform="matrix(0.09320987654320984,0,0,0.09320987654320984,59.56111111111108,0)" xlink:href="#ai"/><use transform="matrix(0.09320987654320984,0,0,0.09320987654320984,78.20308641975305,0)" xlink:href="#aF"/><use transform="matrix(0.09320987654320984,0,0,0.09320987654320984,85.56666666666662,0)" xlink:href="#aW"/><use transform="matrix(0.09320987654320984,0,0,0.09320987654320984,102.3444444444444,0)" xlink:href="#ai"/><use transform="matrix(0.09320987654320984,0,0,0.09320987654320984,120.98641975308635,0)" xlink:href="#aH"/><use transform="matrix(0.09320987654320984,0,0,0.09320987654320984,148.8561728395061,0)" xlink:href="#ai"/><use transform="matrix(0.09320987654320984,0,0,0.09320987654320984,167.49814814814806,0)" xlink:href="#ah"/><use transform="matrix(0.09320987654320984,0,0,0.09320987654320984,184.27592592592583,0)" xlink:href="#ah"/><use transform="matrix(0.09320987654320984,0,0,0.09320987654320984,201.0537037037036,0)" xlink:href="#ar"/><use transform="matrix(0.09320987654320984,0,0,0.09320987654320984,219.69567901234558,0)" xlink:href="#aK"/><use transform="matrix(0.09320987654320984,0,0,0.09320987654320984,238.33765432098755,0)" xlink:href="#ai"/><use transform="matrix(0.09320987654320984,0,0,0.09320987654320984,256.9796296296295,0)" xlink:href="#aN"/><use transform="matrix(0.09320987654320984,0,0,0.09320987654320984,268.0716049382715,0)" xlink:href="#aO"/></g><g id="L"><use transform="matrix(0.09320987654320984,0,0,0.09320987654320984,0,0)" xlink:href="#aH"/><use transform="matrix(0.09320987654320984,0,0,0.09320987654320984,27.869753086419742,0)" xlink:href="#ai"/><use transform="matrix(0.09320987654320984,0,0,0.09320987654320984,46.51172839506171,0)" xlink:href="#ah"/><use transform="matrix(0.09320987654320984,0,0,0.09320987654320984,63.28950617283948,0)" xlink:href="#ah"/><use transform="matrix(0.09320987654320984,0,0,0.09320987654320984,80.06728395061725,0)" xlink:href="#ar"/><use transform="matrix(0.09320987654320984,0,0,0.09320987654320984,98.70925925925924,0)" xlink:href="#aK"/><use transform="matrix(0.09320987654320984,0,0,0.09320987654320984,117.3512345679012,0)" xlink:href="#ai"/><use transform="matrix(0.09320987654320984,0,0,0.09320987654320984,135.99320987654318,0)" xlink:href="#at"/><use transform="matrix(0.09320987654320984,0,0,0.09320987654320984,158.36358024691353,0)" xlink:href="#aD"/><use transform="matrix(0.09320987654320984,0,0,0.09320987654320984,167.68456790123452,0)" xlink:href="#ar"/><use transform="matrix(0.09320987654320984,0,0,0.09320987654320984,186.3265432098765,0)" xlink:href="#aD"/><use transform="matrix(0.09320987654320984,0,0,0.09320987654320984,195.64753086419748,0)" xlink:href="#aA"/><use transform="matrix(0.09320987654320984,0,0,0.09320987654320984,214.28950617283945,0)" xlink:href="#ah"/><use transform="matrix(0.09320987654320984,0,0,0.09320987654320984,231.06728395061722,0)" xlink:href="#aN"/><use transform="matrix(0.09320987654320984,0,0,0.09320987654320984,242.1592592592592,0)" xlink:href="#aO"/></g><g id="M"><use transform="matrix(0.07469135802469135,0,0,0.07469135802469135,0,0)" xlink:href="#aJ"/><use transform="matrix(0.07469135802469135,0,0,0.07469135802469135,15.685185185185183,0)" xlink:href="#aJ"/><use transform="matrix(0.07469135802469135,0,0,0.07469135802469135,31.370370370370367,0)" xlink:href="#ak"/><use transform="matrix(0.07469135802469135,0,0,0.07469135802469135,38.8395061728395,0)" xlink:href="#aH"/><use transform="matrix(0.07469135802469135,0,0,0.07469135802469135,61.17222222222221,0)" xlink:href="#aI"/><use transform="matrix(0.07469135802469135,0,0,0.07469135802469135,79.09814814814814,0)" xlink:href="#at"/><use transform="matrix(0.07469135802469135,0,0,0.07469135802469135,97.02407407407406,0)" xlink:href="#at"/><use transform="matrix(0.07469135802469135,0,0,0.07469135802469135,114.94999999999997,0)" xlink:href="#aC"/><use transform="matrix(0.07469135802469135,0,0,0.07469135802469135,132.8759259259259,0)" xlink:href="#aq"/><use transform="matrix(0.07469135802469135,0,0,0.07469135802469135,153.78950617283948,0)" xlink:href="#aI"/><use transform="matrix(0.07469135802469135,0,0,0.07469135802469135,171.7154320987654,0)" xlink:href="#aL"/><use transform="matrix(0.07469135802469135,0,0,0.07469135802469135,187.4006172839506,0)" xlink:href="#aL"/></g><g id="N"><use transform="matrix(0.07469135802469135,0,0,0.07469135802469135,0,0)" xlink:href="#ak"/><use transform="matrix(0.07469135802469135,0,0,0.07469135802469135,7.469135802469134,0)" xlink:href="#az"/><use transform="matrix(0.07469135802469135,0,0,0.07469135802469135,22.407407407407405,0)" xlink:href="#aD"/><use transform="matrix(0.07469135802469135,0,0,0.07469135802469135,29.876543209876537,0)" xlink:href="#ai"/><use transform="matrix(0.07469135802469135,0,0,0.07469135802469135,44.81481481481481,0)" xlink:href="#aj"/><use transform="matrix(0.07469135802469135,0,0,0.07469135802469135,53.70308641975308,0)" xlink:href="#aE"/><use transform="matrix(0.07469135802469135,0,0,0.07469135802469135,61.17222222222221,0)" xlink:href="#ar"/><use transform="matrix(0.07469135802469135,0,0,0.07469135802469135,76.11049382716048,0)" xlink:href="#aQ"/><use transform="matrix(0.07469135802469135,0,0,0.07469135802469135,89.55493827160493,0)" xlink:href="#ai"/></g><g id="O"><use transform="matrix(0.08086419753086417,0,0,0.08086419753086417,0,0)" xlink:href="#aq"/><use transform="matrix(0.08086419753086417,0,0,0.08086419753086417,22.641975308641968,0)" xlink:href="#aj"/><use transform="matrix(0.08086419753086417,0,0,0.08086419753086417,32.264814814814805,0)" xlink:href="#ay"/><use transform="matrix(0.08086419753086417,0,0,0.08086419753086417,48.43765432098764,0)" xlink:href="#aA"/><use transform="matrix(0.08086419753086417,0,0,0.08086419753086417,64.61049382716047,0)" xlink:href="#aM"/><use transform="matrix(0.08086419753086417,0,0,0.08086419753086417,80.7833333333333,0)" xlink:href="#aH"/><use transform="matrix(0.08086419753086417,0,0,0.08086419753086417,104.9617283950617,0)" xlink:href="#ai"/><use transform="matrix(0.08086419753086417,0,0,0.08086419753086417,121.13456790123453,0)" xlink:href="#ah"/><use transform="matrix(0.08086419753086417,0,0,0.08086419753086417,135.69012345679008,0)" xlink:href="#ah"/><use transform="matrix(0.08086419753086417,0,0,0.08086419753086417,150.24567901234562,0)" xlink:href="#ar"/><use transform="matrix(0.08086419753086417,0,0,0.08086419753086417,166.41851851851845,0)" xlink:href="#aK"/><use transform="matrix(0.08086419753086417,0,0,0.08086419753086417,182.5913580246913,0)" xlink:href="#ai"/></g><g id="P"><use transform="matrix(0.08086419753086417,0,0,0.08086419753086417,0,0)" xlink:href="#an"/><use transform="matrix(0.08086419753086417,0,0,0.08086419753086417,16.172839506172835,0)" xlink:href="#aF"/><use transform="matrix(0.08086419753086417,0,0,0.08086419753086417,22.561111111111103,0)" xlink:href="#ah"/><use transform="matrix(0.08086419753086417,0,0,0.08086419753086417,37.11666666666665,0)" xlink:href="#aD"/><use transform="matrix(0.08086419753086417,0,0,0.08086419753086417,45.20308641975307,0)" xlink:href="#aJ"/><use transform="matrix(0.08086419753086417,0,0,0.08086419753086417,62.184567901234544,0)" xlink:href="#av"/><use transform="matrix(0.08086419753086417,0,0,0.08086419753086417,83.12839506172837,0)" xlink:href="#ai"/><use transform="matrix(0.08086419753086417,0,0,0.08086419753086417,99.3012345679012,0)" xlink:href="#aQ"/><use transform="matrix(0.08086419753086417,0,0,0.08086419753086417,113.85679012345675,0)" xlink:href="#ai"/><use transform="matrix(0.08086419753086417,0,0,0.08086419753086417,130.0296296296296,0)" xlink:href="#aF"/><use transform="matrix(0.08086419753086417,0,0,0.08086419753086417,136.41790123456786,0)" xlink:href="#aW"/><use transform="matrix(0.08086419753086417,0,0,0.08086419753086417,150.9734567901234,0)" xlink:href="#ai"/><use transform="matrix(0.08086419753086417,0,0,0.08086419753086417,167.14629629629624,0)" xlink:href="#aj"/></g><g id="Q"><use transform="matrix(0.08086419753086417,0,0,0.08086419753086417,0,0)" xlink:href="#ak"/><use transform="matrix(0.08086419753086417,0,0,0.08086419753086417,8.086419753086417,0)" xlink:href="#al"/><use transform="matrix(0.08086419753086417,0,0,0.08086419753086417,24.259259259259252,0)" xlink:href="#aL"/></g><g id="R"><use transform="matrix(0.07469135802469135,0,0,0.07469135802469135,0,0)" xlink:href="#aJ"/><use transform="matrix(0.07469135802469135,0,0,0.07469135802469135,15.685185185185183,0)" xlink:href="#aJ"/><use transform="matrix(0.07469135802469135,0,0,0.07469135802469135,31.370370370370367,0)" xlink:href="#ak"/><use transform="matrix(0.07469135802469135,0,0,0.07469135802469135,38.8395061728395,0)" xlink:href="#aP"/><use transform="matrix(0.07469135802469135,0,0,0.07469135802469135,58.18456790123456,0)" xlink:href="#ao"/><use transform="matrix(0.07469135802469135,0,0,0.07469135802469135,79.09814814814814,0)" xlink:href="#ap"/><use transform="matrix(0.07469135802469135,0,0,0.07469135802469135,98.4432098765432,0)" xlink:href="#au"/><use transform="matrix(0.07469135802469135,0,0,0.07469135802469135,114.8006172839506,0)" xlink:href="#aI"/><use transform="matrix(0.07469135802469135,0,0,0.07469135802469135,132.72654320987652,0)" xlink:href="#ap"/><use transform="matrix(0.07469135802469135,0,0,0.07469135802469135,152.07160493827158,0)" xlink:href="#au"/><use transform="matrix(0.07469135802469135,0,0,0.07469135802469135,168.42901234567898,0)" xlink:href="#aL"/><use transform="matrix(0.07469135802469135,0,0,0.07469135802469135,184.11419753086417,0)" xlink:href="#aL"/></g><g id="S"><use transform="matrix(0.07469135802469135,0,0,0.07469135802469135,0,0)" xlink:href="#ak"/><use transform="matrix(0.07469135802469135,0,0,0.07469135802469135,7.469135802469134,0)" xlink:href="#az"/><use transform="matrix(0.07469135802469135,0,0,0.07469135802469135,22.407407407407405,0)" xlink:href="#aD"/><use transform="matrix(0.07469135802469135,0,0,0.07469135802469135,29.876543209876537,0)" xlink:href="#ai"/><use transform="matrix(0.07469135802469135,0,0,0.07469135802469135,44.81481481481481,0)" xlink:href="#aj"/><use transform="matrix(0.07469135802469135,0,0,0.07469135802469135,53.70308641975308,0)" xlink:href="#aE"/><use transform="matrix(0.07469135802469135,0,0,0.07469135802469135,61.17222222222221,0)" xlink:href="#ar"/><use transform="matrix(0.07469135802469135,0,0,0.07469135802469135,76.11049382716048,0)" xlink:href="#aQ"/><use transform="matrix(0.07469135802469135,0,0,0.07469135802469135,89.55493827160493,0)" xlink:href="#ai"/></g><g id="T"><use transform="matrix(0.07469135802469135,0,0,0.07469135802469135,0,0)" xlink:href="#aK"/><use transform="matrix(0.07469135802469135,0,0,0.07469135802469135,14.938271604938269,0)" xlink:href="#ai"/><use transform="matrix(0.07469135802469135,0,0,0.07469135802469135,29.876543209876537,0)" xlink:href="#aD"/><use transform="matrix(0.07469135802469135,0,0,0.07469135802469135,37.34567901234567,0)" xlink:href="#aP"/><use transform="matrix(0.07469135802469135,0,0,0.07469135802469135,56.69074074074073,0)" xlink:href="#ay"/><use transform="matrix(0.07469135802469135,0,0,0.07469135802469135,71.629012345679,0)" xlink:href="#az"/><use transform="matrix(0.07469135802469135,0,0,0.07469135802469135,86.56728395061727,0)" xlink:href="#aD"/><use transform="matrix(0.07469135802469135,0,0,0.07469135802469135,94.0364197530864,0)" xlink:href="#ai"/><use transform="matrix(0.07469135802469135,0,0,0.07469135802469135,108.97469135802467,0)" xlink:href="#az"/><use transform="matrix(0.07469135802469135,0,0,0.07469135802469135,123.91296296296294,0)" xlink:href="#aD"/><use transform="matrix(0.07469135802469135,0,0,0.07469135802469135,131.38209876543206,0)" xlink:href="#aN"/><use transform="matrix(0.07469135802469135,0,0,0.07469135802469135,140.27037037037033,0)" xlink:href="#aO"/></g><path fill="#333" d="M24-231v-30h32v30H24zM-9 49c24 4 33-6 33-30v-209h32V24c2 40-23 58-65 49V49" id="aX"/><g id="U"><use transform="matrix(0.07469135802469135,0,0,0.07469135802469135,0,0)" xlink:href="#aI"/><use transform="matrix(0.07469135802469135,0,0,0.07469135802469135,17.925925925925924,0)" xlink:href="#as"/><use transform="matrix(0.07469135802469135,0,0,0.07469135802469135,40.258641975308635,0)" xlink:href="#ay"/><use transform="matrix(0.07469135802469135,0,0,0.07469135802469135,55.19691358024689,0)" xlink:href="#aX"/><use transform="matrix(0.07469135802469135,0,0,0.07469135802469135,61.09753086419751,0)" xlink:href="#aF"/><use transform="matrix(0.07469135802469135,0,0,0.07469135802469135,66.99814814814813,0)" xlink:href="#ai"/><use transform="matrix(0.07469135802469135,0,0,0.07469135802469135,81.93641975308638,0)" xlink:href="#ah"/></g><g id="V"><use transform="matrix(0.07469135802469135,0,0,0.07469135802469135,0,0)" xlink:href="#ak"/><use transform="matrix(0.07469135802469135,0,0,0.07469135802469135,7.469135802469134,0)" xlink:href="#as"/><use transform="matrix(0.07469135802469135,0,0,0.07469135802469135,29.801851851851843,0)" xlink:href="#ar"/><use transform="matrix(0.07469135802469135,0,0,0.07469135802469135,44.740123456790116,0)" xlink:href="#aK"/><use transform="matrix(0.07469135802469135,0,0,0.07469135802469135,59.678395061728374,0)" xlink:href="#ai"/></g><path fill="#333" d="M137 0h-34L2-248h35l83 218 83-218h36" id="aY"/><g id="W"><use transform="matrix(0.07469135802469135,0,0,0.07469135802469135,0,0)" xlink:href="#aY"/><use transform="matrix(0.07469135802469135,0,0,0.07469135802469135,17.403086419753084,0)" xlink:href="#aF"/><use transform="matrix(0.07469135802469135,0,0,0.07469135802469135,23.3037037037037,0)" xlink:href="#al"/><use transform="matrix(0.07469135802469135,0,0,0.07469135802469135,38.24197530864197,0)" xlink:href="#ai"/><use transform="matrix(0.07469135802469135,0,0,0.07469135802469135,53.18024691358024,0)" xlink:href="#ay"/></g><g id="X"><use transform="matrix(0.07469135802469135,0,0,0.07469135802469135,0,0)" xlink:href="#at"/><use transform="matrix(0.07469135802469135,0,0,0.07469135802469135,17.925925925925924,0)" xlink:href="#au"/><use transform="matrix(0.07469135802469135,0,0,0.07469135802469135,32.266666666666666,0)" xlink:href="#aC"/><use transform="matrix(0.07469135802469135,0,0,0.07469135802469135,48.175925925925924,0)" xlink:href="#au"/><use transform="matrix(0.07469135802469135,0,0,0.07469135802469135,64.53333333333333,0)" xlink:href="#ag"/><use transform="matrix(0.07469135802469135,0,0,0.07469135802469135,83.87839506172838,0)" xlink:href="#at"/></g><g id="Y"><use transform="matrix(0.07469135802469135,0,0,0.07469135802469135,0,0)" xlink:href="#at"/><use transform="matrix(0.07469135802469135,0,0,0.07469135802469135,17.925925925925924,0)" xlink:href="#ak"/><use transform="matrix(0.07469135802469135,0,0,0.07469135802469135,25.395061728395056,0)" xlink:href="#ap"/><use transform="matrix(0.07469135802469135,0,0,0.07469135802469135,44.740123456790116,0)" xlink:href="#aq"/><use transform="matrix(0.07469135802469135,0,0,0.07469135802469135,65.65370370370368,0)" xlink:href="#an"/><use transform="matrix(0.07469135802469135,0,0,0.07469135802469135,80.59197530864195,0)" xlink:href="#aI"/></g><path fill="#333" d="M194 0L95-120 63-95V0H30v-248h33v124l119-124h40L117-140 236 0h-42" id="aZ"/><g id="Z"><use transform="matrix(0.07469135802469135,0,0,0.07469135802469135,0,0)" xlink:href="#au"/><use transform="matrix(0.07469135802469135,0,0,0.07469135802469135,16.357407407407404,0)" xlink:href="#ak"/><use transform="matrix(0.07469135802469135,0,0,0.07469135802469135,23.82654320987654,0)" xlink:href="#aP"/><use transform="matrix(0.07469135802469135,0,0,0.07469135802469135,43.1716049382716,0)" xlink:href="#aZ"/></g><g id="aa"><use transform="matrix(0.07469135802469135,0,0,0.07469135802469135,0,0)" xlink:href="#aR"/><use transform="matrix(0.07469135802469135,0,0,0.07469135802469135,19.34506172839506,0)" xlink:href="#ao"/><use transform="matrix(0.07469135802469135,0,0,0.07469135802469135,40.258641975308635,0)" xlink:href="#ag"/><use transform="matrix(0.07469135802469135,0,0,0.07469135802469135,59.603703703703694,0)" xlink:href="#aU"/><use transform="matrix(0.07469135802469135,0,0,0.07469135802469135,77.52962962962961,0)" xlink:href="#an"/><use transform="matrix(0.07469135802469135,0,0,0.07469135802469135,92.46790123456789,0)" xlink:href="#aI"/></g><g id="ab"><use transform="matrix(0.07469135802469135,0,0,0.07469135802469135,0,0)" xlink:href="#aU"/><use transform="matrix(0.07469135802469135,0,0,0.07469135802469135,17.925925925925924,0)" xlink:href="#an"/><use transform="matrix(0.07469135802469135,0,0,0.07469135802469135,32.86419753086419,0)" xlink:href="#ag"/><use transform="matrix(0.07469135802469135,0,0,0.07469135802469135,52.20925925925925,0)" xlink:href="#aI"/></g><g id="ac"><use transform="matrix(0.07469135802469135,0,0,0.07469135802469135,0,0)" xlink:href="#au"/><use transform="matrix(0.07469135802469135,0,0,0.07469135802469135,16.357407407407404,0)" xlink:href="#ak"/><use transform="matrix(0.07469135802469135,0,0,0.07469135802469135,23.82654320987654,0)" xlink:href="#aP"/><use transform="matrix(0.07469135802469135,0,0,0.07469135802469135,43.1716049382716,0)" xlink:href="#aZ"/></g><path fill="#333" d="M141 0L90-78 38 0H4l68-98-65-92h35l48 74 47-74h35l-64 92 68 98h-35" id="ba"/><g id="ad"><use transform="matrix(0.07469135802469135,0,0,0.07469135802469135,0,0)" xlink:href="#aw"/><use transform="matrix(0.07469135802469135,0,0,0.07469135802469135,17.925925925925924,0)" xlink:href="#aG"/><use transform="matrix(0.07469135802469135,0,0,0.07469135802469135,23.82654320987654,0)" xlink:href="#ar"/><use transform="matrix(0.07469135802469135,0,0,0.07469135802469135,38.764814814814805,0)" xlink:href="#aF"/><use transform="matrix(0.07469135802469135,0,0,0.07469135802469135,44.66543209876542,0)" xlink:href="#az"/><use transform="matrix(0.07469135802469135,0,0,0.07469135802469135,59.6037037037037,0)" xlink:href="#au"/><use transform="matrix(0.07469135802469135,0,0,0.07469135802469135,72.97345679012345,0)" xlink:href="#ai"/><use transform="matrix(0.07469135802469135,0,0,0.07469135802469135,87.91172839506171,0)" xlink:href="#ba"/><use transform="matrix(0.07469135802469135,0,0,0.07469135802469135,101.35617283950616,0)" xlink:href="#aD"/></g><path d="M27 0v-27h64v-190l-56 39v-29l58-41h29v221h61V0H27" id="bb"/><use transform="matrix(0.07469135802469135,0,0,0.07469135802469135,0,0)" xlink:href="#bb" id="ae"/><path d="M190 0L58-211 59 0H30v-248h39L202-35l-2-213h31V0h-41" id="bc"/><use transform="matrix(0.07469135802469135,0,0,0.07469135802469135,0,0)" xlink:href="#bc" id="af"/></defs></g></svg>